<svg width="159" height="38" viewBox="0 0 159 38" fill="none" xmlns="http://www.w3.org/2000/svg">
<path d="M45.8826 27.7253C45.3147 28.0533 44.6746 28.236 44.0191 28.2573C43.3637 28.2787 42.7131 28.138 42.125 27.8478C41.5369 27.5575 41.0295 27.1266 40.6478 26.5934C40.2661 26.0601 40.0218 25.4409 39.9367 24.7907C39.5595 21.761 39.2283 18.7282 38.8787 15.6955C38.8634 15.5575 38.8481 15.4195 38.8297 15.2815C38.7407 14.6897 38.4402 14.3186 37.9373 14.2113C37.6875 14.1424 37.4221 14.157 37.1813 14.2527C36.9406 14.3485 36.7376 14.5202 36.6034 14.7418C35.9073 15.7292 35.202 16.7105 34.5028 17.6948C34.1011 18.2621 33.7056 18.8325 33.2947 19.3937C32.8037 20.0895 32.1363 20.642 31.3611 20.9945C30.5858 21.3469 29.7307 21.4866 28.8837 21.3992C28.0366 21.3118 27.2281 21.0004 26.5412 20.497C25.8543 19.9936 25.3138 19.3165 24.9753 18.5351C24.3466 17.1275 23.7487 15.7078 23.1354 14.291C22.9452 13.8372 22.7183 13.4569 22.1664 13.4723C21.6144 13.4876 21.412 13.9016 21.2464 14.3493L21.1943 14.4842L20.8355 15.4348C19.5026 18.9654 18.1636 22.4959 16.8184 26.0265C16.6326 26.5353 16.3074 26.9816 15.8801 27.3144C15.5329 27.5829 15.1249 27.7616 14.6922 27.8349C14.2595 27.9082 13.8155 27.8737 13.3993 27.7345C13.3708 27.7296 13.343 27.7214 13.3165 27.71C13.0441 27.6161 12.7884 27.4795 12.559 27.3052L12.467 27.2316C12.0936 26.9287 11.767 26.5722 11.498 26.1737C10.2714 24.3583 9.07858 22.5184 7.88265 20.6816C7.67321 20.3785 7.52656 20.0366 7.45137 19.6759C7.37617 19.3153 7.37395 18.9432 7.44483 18.5817C7.5157 18.2201 7.65825 17.8765 7.86405 17.5709C8.06986 17.2653 8.33475 17.0041 8.64313 16.8025C9.94026 15.9684 11.5778 16.3456 12.467 17.6887C12.8166 18.2131 13.1785 18.7313 13.5281 19.2618C13.542 19.218 13.5584 19.175 13.5771 19.133C14.8773 15.6924 16.1775 12.2539 17.4777 8.81736C18.2504 6.75975 20.0075 5.48715 22.3841 5.47488C24.181 5.56381 25.7051 6.52055 26.5729 8.4187C27.3334 10.0838 28.0356 11.7919 28.7501 13.46C28.9218 13.8709 29.1488 14.196 29.6241 14.2481C30.0994 14.3002 30.3876 14.0273 30.6452 13.6655C32.3052 11.3165 33.9683 8.97273 35.6344 6.63402C36.0064 6.1051 36.4907 5.66497 37.0528 5.34521C37.6148 5.02545 38.2406 4.83396 38.8853 4.78443C39.5301 4.73491 40.1778 4.82857 40.7821 5.05874C41.3863 5.28891 41.9323 5.64987 42.3807 6.11577C43.0396 6.76775 43.458 7.62394 43.5674 8.54444C43.9047 11.4065 44.2349 14.2686 44.5579 17.1306C44.5885 17.379 44.6131 17.6274 44.6499 17.8758C44.6629 17.9825 44.694 18.0862 44.7419 18.1824L45.8826 27.7253Z" fill="#95A202"/>
<path d="M7.11612 13.0676C7.11108 13.7735 6.89616 14.4618 6.49872 15.0451C6.10127 15.6285 5.53928 16.0804 4.88424 16.3433C4.22921 16.6063 3.51076 16.6684 2.8203 16.5218C2.12985 16.3752 1.49862 16.0265 1.00694 15.5201C0.51526 15.0137 0.18536 14.3724 0.0592188 13.6779C-0.0669226 12.9834 0.0163996 12.2671 0.298582 11.6202C0.580765 10.9732 1.04904 10.4248 1.64384 10.0447C2.23864 9.66469 2.93306 9.47017 3.63872 9.48597C4.57122 9.51079 5.45702 9.89936 6.10681 10.5686C6.75661 11.2379 7.11886 12.1348 7.11612 13.0676Z" fill="#95A202"/>
<path d="M26.9738 31.7294L26.2926 35.8329H25.8117L24.1126 32.611H24.0725L23.5355 35.8329H23.0386L23.7199 31.7294H24.2008L25.9079 34.9593H25.948L26.4849 31.7294H26.9738Z" fill="#131313"/>
<path d="M29.3707 34.5746L29.6753 32.7553H30.1482L29.6352 35.8329H29.1624L29.2505 35.312H29.2185C29.1223 35.4683 28.988 35.6012 28.8157 35.7107C28.6434 35.8189 28.441 35.873 28.2086 35.873C28.0163 35.873 27.852 35.8309 27.7157 35.7468C27.5808 35.6613 27.4846 35.5331 27.4272 35.3621C27.3711 35.1898 27.3644 34.9727 27.4071 34.7109L27.7357 32.7553H28.2086L27.888 34.6788C27.852 34.9032 27.886 35.0822 27.9902 35.2158C28.0944 35.3494 28.2447 35.4162 28.441 35.4162C28.5586 35.4162 28.6828 35.3861 28.8137 35.326C28.946 35.2659 29.0635 35.1737 29.1664 35.0495C29.2706 34.9253 29.3387 34.767 29.3707 34.5746Z" fill="#131313"/>
<path d="M30.5013 35.8329L31.0142 32.7553H31.4711L31.3909 33.2201H31.423C31.5031 33.0679 31.6254 32.9443 31.7897 32.8495C31.954 32.7546 32.1283 32.7072 32.3126 32.7072C32.3487 32.7072 32.3921 32.7079 32.4429 32.7092C32.4936 32.7092 32.533 32.7112 32.5611 32.7152L32.4809 33.1961C32.4649 33.1921 32.4288 33.1861 32.3727 33.1781C32.3166 33.1687 32.2565 33.164 32.1924 33.164C32.0428 33.164 31.9045 33.1954 31.7776 33.2582C31.6507 33.3197 31.5446 33.4052 31.4591 33.5147C31.3736 33.6229 31.3188 33.7464 31.2948 33.8854L30.9742 35.8329H30.5013Z" fill="#131313"/>
<path d="M34.6559 32.7553L34.5918 33.156H32.9969L33.061 32.7553H34.6559ZM33.6461 32.0179H34.1189L33.63 34.9513C33.6087 35.0849 33.612 35.1851 33.6401 35.2519C33.6694 35.3173 33.7135 35.3614 33.7723 35.3841C33.8324 35.4055 33.8972 35.4162 33.9667 35.4162C34.0188 35.4162 34.0615 35.4135 34.0949 35.4082C34.1283 35.4015 34.155 35.3961 34.175 35.3921L34.2071 35.8169C34.171 35.8289 34.1223 35.841 34.0608 35.853C34.0007 35.8663 33.9266 35.873 33.8384 35.873C33.7048 35.873 33.5793 35.8443 33.4617 35.7869C33.3442 35.7294 33.254 35.6419 33.1912 35.5244C33.1285 35.4068 33.1118 35.2586 33.1411 35.0796L33.6461 32.0179Z" fill="#131313"/>
<path d="M37.0022 34.5746L37.3068 32.7553H37.7797L37.2667 35.8329H36.7938L36.882 35.312H36.8499C36.7538 35.4683 36.6195 35.6012 36.4472 35.7107C36.2749 35.8189 36.0725 35.873 35.8401 35.873C35.6477 35.873 35.4834 35.8309 35.3472 35.7468C35.2123 35.6613 35.1161 35.5331 35.0587 35.3621C35.0026 35.1898 34.9959 34.9727 35.0386 34.7109L35.3672 32.7553H35.8401L35.5195 34.6788C35.4834 34.9032 35.5175 35.0822 35.6217 35.2158C35.7259 35.3494 35.8762 35.4162 36.0725 35.4162C36.1901 35.4162 36.3143 35.3861 36.4452 35.326C36.5774 35.2659 36.695 35.1737 36.7979 35.0495C36.902 34.9253 36.9702 34.767 37.0022 34.5746Z" fill="#131313"/>
<path d="M38.1328 35.8329L38.6457 32.7553H39.1026L39.0224 33.2201H39.0545C39.1346 33.0679 39.2569 32.9443 39.4212 32.8495C39.5855 32.7546 39.7598 32.7072 39.9441 32.7072C39.9802 32.7072 40.0236 32.7079 40.0744 32.7092C40.1251 32.7092 40.1645 32.7112 40.1926 32.7152L40.1124 33.1961C40.0964 33.1921 40.0603 33.1861 40.0042 33.1781C39.9481 33.1687 39.888 33.164 39.8239 33.164C39.6743 33.164 39.536 33.1954 39.4091 33.2582C39.2822 33.3197 39.176 33.4052 39.0906 33.5147C39.0051 33.6229 38.9503 33.7464 38.9263 33.8854L38.6057 35.8329H38.1328Z" fill="#131313"/>
<path d="M40.2432 35.8329L40.7561 32.7553H41.229L40.716 35.8329H40.2432ZM41.1368 32.2343C41.0446 32.2343 40.9652 32.203 40.8984 32.1402C40.8329 32.0774 40.8002 32.0019 40.8002 31.9138C40.8002 31.8256 40.8329 31.7501 40.8984 31.6873C40.9652 31.6246 41.0446 31.5932 41.1368 31.5932C41.229 31.5932 41.3078 31.6246 41.3732 31.6873C41.44 31.7501 41.4734 31.8256 41.4734 31.9138C41.4734 32.0019 41.44 32.0774 41.3732 32.1402C41.3078 32.203 41.229 32.2343 41.1368 32.2343Z" fill="#131313"/>
<path d="M42.3595 33.9815L42.055 35.8329H41.5821L42.0951 32.7553H42.5519L42.4717 33.2362H42.5118C42.608 33.0799 42.7382 32.9543 42.9025 32.8595C43.0668 32.7633 43.2652 32.7152 43.4976 32.7152C43.7033 32.7152 43.877 32.758 44.0186 32.8435C44.1615 32.9276 44.2624 33.0558 44.3211 33.2282C44.3812 33.3991 44.3899 33.6155 44.3472 33.8774L44.0186 35.8329H43.5457L43.8663 33.9094C43.9064 33.669 43.875 33.4806 43.7721 33.3444C43.6706 33.2081 43.5097 33.14 43.2892 33.14C43.137 33.14 42.996 33.1727 42.8665 33.2382C42.7382 33.3036 42.6294 33.3991 42.5399 33.5247C42.4517 33.6503 42.3916 33.8026 42.3595 33.9815Z" fill="#131313"/>
<path d="M45.9326 37.0512C45.7028 37.0512 45.5105 37.0218 45.3555 36.963C45.2006 36.9056 45.0764 36.8294 44.9829 36.7346C44.8894 36.6411 44.8186 36.5409 44.7705 36.434L45.1952 36.1696C45.2273 36.2257 45.2687 36.2898 45.3195 36.3619C45.3702 36.4354 45.447 36.4988 45.5499 36.5523C45.6541 36.607 45.8004 36.6344 45.9887 36.6344C46.2358 36.6344 46.4522 36.5743 46.6379 36.4541C46.8236 36.3339 46.9384 36.1455 46.9825 35.889L47.0787 35.2639H47.0386C46.9959 35.32 46.9364 35.3895 46.8603 35.4723C46.7842 35.5538 46.682 35.6266 46.5537 35.6907C46.4255 35.7535 46.2612 35.7849 46.0608 35.7849C45.811 35.7849 45.5973 35.7261 45.4197 35.6085C45.242 35.491 45.1144 35.32 45.0369 35.0956C44.9608 34.8712 44.9495 34.5987 45.0029 34.2781C45.055 33.9628 45.1552 33.6883 45.3034 33.4546C45.453 33.2195 45.6374 33.0378 45.8565 32.9096C46.0755 32.78 46.3146 32.7152 46.5738 32.7152C46.7741 32.7152 46.9277 32.7486 47.0346 32.8154C47.1428 32.8809 47.2216 32.9557 47.271 33.0398C47.3205 33.1226 47.3579 33.1908 47.3833 33.2442H47.4313L47.5115 32.7553H47.9683L47.4474 35.9211C47.4033 36.1856 47.3078 36.4006 47.1608 36.5663C47.0139 36.7333 46.8336 36.8555 46.6199 36.933C46.4061 37.0118 46.177 37.0512 45.9326 37.0512ZM46.181 35.3601C46.3694 35.3601 46.537 35.3167 46.684 35.2298C46.8322 35.143 46.9551 35.0181 47.0526 34.8551C47.1502 34.6922 47.2176 34.4972 47.255 34.2701C47.2924 34.0483 47.2897 33.8526 47.247 33.683C47.2043 33.5134 47.1234 33.3804 47.0046 33.2843C46.887 33.1881 46.7327 33.14 46.5417 33.14C46.34 33.14 46.1657 33.1908 46.0187 33.2923C45.8731 33.3938 45.7549 33.5301 45.6641 33.701C45.5733 33.872 45.5105 34.0617 45.4758 34.2701C45.441 34.4838 45.4424 34.6728 45.4798 34.8371C45.5172 35.0001 45.5933 35.1283 45.7082 35.2218C45.8244 35.314 45.982 35.3601 46.181 35.3601Z" fill="#131313"/>
<path d="M50.8055 35.9051C50.6105 35.9051 50.4395 35.8683 50.2926 35.7949C50.1456 35.7201 50.0368 35.6125 49.966 35.4723C49.8952 35.3307 49.8758 35.1597 49.9079 34.9593C49.9386 34.783 49.998 34.6401 50.0862 34.5306C50.1744 34.4197 50.2812 34.3329 50.4068 34.2701C50.5337 34.206 50.6699 34.1585 50.8155 34.1278C50.9625 34.0958 51.1087 34.071 51.2543 34.0537C51.444 34.0296 51.5983 34.0109 51.7172 33.9976C51.8361 33.9842 51.9256 33.9622 51.9857 33.9315C52.0458 33.9007 52.0825 33.848 52.0959 33.7732V33.7571C52.1279 33.5608 52.1019 33.4078 52.0177 33.2983C51.9336 33.1874 51.7833 33.132 51.5669 33.132C51.3425 33.132 51.1548 33.1814 51.0039 33.2803C50.8529 33.3791 50.7414 33.4846 50.6693 33.5968L50.2525 33.4365C50.362 33.2495 50.493 33.1039 50.6452 32.9997C50.7975 32.8942 50.9571 32.8208 51.1241 32.7793C51.2911 32.7366 51.452 32.7152 51.607 32.7152C51.7058 32.7152 51.8174 32.7272 51.9416 32.7513C52.0658 32.774 52.182 32.8214 52.2902 32.8936C52.3998 32.9657 52.4819 33.0746 52.5367 33.2201C52.5928 33.3657 52.6008 33.5608 52.5607 33.8052L52.2241 35.8329H51.7513L51.8234 35.4162H51.7993C51.7566 35.483 51.6911 35.5544 51.603 35.6306C51.5162 35.7067 51.406 35.7715 51.2724 35.8249C51.1401 35.8784 50.9845 35.9051 50.8055 35.9051ZM50.9418 35.4803C51.1288 35.4803 51.2924 35.4436 51.4327 35.3701C51.5743 35.2966 51.6878 35.2018 51.7733 35.0856C51.8601 34.9694 51.9142 34.8471 51.9356 34.7189L52.0077 34.2861C51.9837 34.3101 51.9363 34.3322 51.8655 34.3522C51.7947 34.3709 51.7145 34.3876 51.625 34.4023C51.5369 34.4157 51.4507 34.4277 51.3666 34.4384C51.2837 34.4477 51.2169 34.4557 51.1662 34.4624C51.0406 34.4785 50.9211 34.5045 50.8075 34.5406C50.6953 34.5753 50.6005 34.6281 50.523 34.6989C50.4469 34.7683 50.3994 34.8632 50.3807 34.9834C50.3527 35.1477 50.3921 35.2719 50.499 35.3561C50.6058 35.4389 50.7534 35.4803 50.9418 35.4803Z" fill="#131313"/>
<path d="M55.6679 33.4446L55.2191 33.5648C55.2031 33.4926 55.175 33.4232 55.135 33.3564C55.0962 33.2883 55.0361 33.2328 54.9546 33.1901C54.8745 33.146 54.7649 33.124 54.626 33.124C54.4377 33.124 54.274 33.1674 54.1351 33.2542C53.9962 33.3397 53.9167 33.4486 53.8967 33.5808C53.8767 33.697 53.9034 33.7899 53.9768 33.8593C54.0503 33.9288 54.1732 33.9855 54.3455 34.0296L54.7863 34.1418C55.0508 34.21 55.2392 34.3121 55.3514 34.4484C55.4649 34.5833 55.5036 34.759 55.4676 34.9754C55.4382 35.1517 55.3614 35.3093 55.2371 35.4482C55.1129 35.5872 54.954 35.6967 54.7603 35.7768C54.5666 35.857 54.3509 35.8971 54.1131 35.8971C53.7965 35.8971 53.5467 35.8289 53.3637 35.6927C53.1807 35.5551 53.0832 35.3561 53.0712 35.0956L53.544 34.9834C53.5561 35.1477 53.6148 35.2719 53.7204 35.3561C53.8272 35.4389 53.9768 35.4803 54.1692 35.4803C54.3896 35.4803 54.5733 35.4335 54.7202 35.34C54.8671 35.2452 54.9506 35.1317 54.9707 34.9994C54.9907 34.8912 54.9693 34.801 54.9065 34.7289C54.8451 34.6568 54.7382 34.6027 54.586 34.5666L54.0971 34.4464C53.8246 34.3783 53.6335 34.2741 53.524 34.1338C53.4158 33.9936 53.3797 33.8172 53.4158 33.6049C53.4452 33.4312 53.52 33.2776 53.6402 33.144C53.7618 33.0104 53.9141 32.9056 54.0971 32.8294C54.2814 32.7533 54.4818 32.7152 54.6982 32.7152C55.0027 32.7152 55.2305 32.782 55.3814 32.9156C55.5324 33.0478 55.6279 33.2242 55.6679 33.4446Z" fill="#131313"/>
<path d="M55.8428 36.9871L56.5521 32.7553H57.0089L56.9287 33.2442H56.9849C57.0276 33.1908 57.0864 33.1226 57.1612 33.0398C57.2373 32.9557 57.3395 32.8809 57.4677 32.8154C57.5973 32.7486 57.7623 32.7152 57.9626 32.7152C58.2218 32.7152 58.4389 32.78 58.6138 32.9096C58.7888 33.0392 58.9124 33.2228 58.9845 33.4606C59.0566 33.6984 59.066 33.9789 59.0126 34.3021C58.9591 34.6281 58.8569 34.9106 58.706 35.1497C58.5551 35.3875 58.3707 35.5718 58.153 35.7027C57.9353 35.8323 57.6982 35.8971 57.4417 35.8971C57.244 35.8971 57.091 35.8643 56.9828 35.7989C56.8746 35.7321 56.7958 35.6566 56.7464 35.5725C56.697 35.487 56.6589 35.4162 56.6322 35.3601H56.5921L56.3196 36.9871H55.8428ZM56.7604 34.2941C56.723 34.5265 56.723 34.7316 56.7604 34.9092C56.7992 35.0856 56.876 35.2238 56.9909 35.324C57.1071 35.4229 57.26 35.4723 57.4497 35.4723C57.6474 35.4723 57.8204 35.4202 57.9687 35.316C58.1183 35.2105 58.2412 35.0689 58.3373 34.8912C58.4348 34.7122 58.5023 34.5132 58.5397 34.2941C58.5744 34.0777 58.5731 33.8827 58.5357 33.709C58.4983 33.5341 58.4222 33.3958 58.3073 33.2943C58.1924 33.1914 58.0348 33.14 57.8344 33.14C57.6421 33.14 57.4717 33.1888 57.3235 33.2863C57.1765 33.3824 57.055 33.5174 56.9588 33.691C56.864 33.8633 56.7978 34.0644 56.7604 34.2941Z" fill="#131313"/>
<path d="M59.4789 35.8329L59.9919 32.7553H60.4647L59.9518 35.8329H59.4789ZM60.3726 32.2343C60.2804 32.2343 60.2009 32.203 60.1341 32.1402C60.0687 32.0774 60.0359 32.0019 60.0359 31.9138C60.0359 31.8256 60.0687 31.7501 60.1341 31.6873C60.2009 31.6246 60.2804 31.5932 60.3726 31.5932C60.4647 31.5932 60.5435 31.6246 60.609 31.6873C60.6758 31.7501 60.7092 31.8256 60.7092 31.9138C60.7092 32.0019 60.6758 32.0774 60.609 32.1402C60.5435 32.203 60.4647 32.2343 60.3726 32.2343Z" fill="#131313"/>
<path d="M60.8179 35.8329L61.3308 32.7553H61.7877L61.7075 33.2201H61.7396C61.8197 33.0679 61.9419 32.9443 62.1062 32.8495C62.2705 32.7546 62.4449 32.7072 62.6292 32.7072C62.6653 32.7072 62.7087 32.7079 62.7594 32.7092C62.8102 32.7092 62.8496 32.7112 62.8777 32.7152L62.7975 33.1961C62.7815 33.1921 62.7454 33.1861 62.6893 33.1781C62.6332 33.1687 62.5731 33.164 62.509 33.164C62.3594 33.164 62.2211 33.1954 62.0942 33.2582C61.9673 33.3197 61.8611 33.4052 61.7756 33.5147C61.6901 33.6229 61.6354 33.7464 61.6113 33.8854L61.2907 35.8329H60.8179Z" fill="#131313"/>
<path d="M63.8259 35.9051C63.6309 35.9051 63.4599 35.8683 63.3129 35.7949C63.166 35.7201 63.0571 35.6125 62.9864 35.4723C62.9156 35.3307 62.8962 35.1597 62.9282 34.9593C62.959 34.783 63.0184 34.6401 63.1066 34.5306C63.1947 34.4197 63.3016 34.3329 63.4272 34.2701C63.5541 34.206 63.6903 34.1585 63.8359 34.1278C63.9828 34.0958 64.1291 34.071 64.2747 34.0537C64.4644 34.0296 64.6187 34.0109 64.7376 33.9976C64.8564 33.9842 64.9459 33.9622 65.0061 33.9315C65.0662 33.9007 65.1029 33.848 65.1162 33.7732V33.7571C65.1483 33.5608 65.1223 33.4078 65.0381 33.2983C64.954 33.1874 64.8037 33.132 64.5873 33.132C64.3629 33.132 64.1752 33.1814 64.0243 33.2803C63.8733 33.3791 63.7618 33.4846 63.6896 33.5968L63.2729 33.4365C63.3824 33.2495 63.5133 33.1039 63.6656 32.9997C63.8179 32.8942 63.9775 32.8208 64.1445 32.7793C64.3114 32.7366 64.4724 32.7152 64.6274 32.7152C64.7262 32.7152 64.8377 32.7272 64.962 32.7513C65.0862 32.774 65.2024 32.8214 65.3106 32.8936C65.4201 32.9657 65.5023 33.0746 65.5571 33.2201C65.6132 33.3657 65.6212 33.5608 65.5811 33.8052L65.2445 35.8329H64.7716L64.8438 35.4162H64.8197C64.777 35.483 64.7115 35.5544 64.6234 35.6306C64.5365 35.7067 64.4263 35.7715 64.2927 35.8249C64.1605 35.8784 64.0049 35.9051 63.8259 35.9051ZM63.9621 35.4803C64.1491 35.4803 64.3128 35.4436 64.453 35.3701C64.5946 35.2966 64.7082 35.2018 64.7937 35.0856C64.8805 34.9694 64.9346 34.8471 64.956 34.7189L65.0281 34.2861C65.004 34.3101 64.9566 34.3322 64.8858 34.3522C64.815 34.3709 64.7349 34.3876 64.6454 34.4023C64.5572 34.4157 64.4711 34.4277 64.3869 34.4384C64.3041 34.4477 64.2373 34.4557 64.1865 34.4624C64.061 34.4785 63.9414 34.5045 63.8279 34.5406C63.7157 34.5753 63.6208 34.6281 63.5434 34.6989C63.4672 34.7683 63.4198 34.8632 63.4011 34.9834C63.3731 35.1477 63.4125 35.2719 63.5193 35.3561C63.6262 35.4389 63.7738 35.4803 63.9621 35.4803Z" fill="#131313"/>
<path d="M67.959 32.7553L67.8949 33.156H66.2999L66.364 32.7553H67.959ZM66.9491 32.0179H67.422L66.9331 34.9513C66.9117 35.0849 66.9151 35.1851 66.9431 35.2519C66.9725 35.3173 67.0166 35.3614 67.0753 35.3841C67.1355 35.4055 67.2002 35.4162 67.2697 35.4162C67.3218 35.4162 67.3645 35.4135 67.3979 35.4082C67.4313 35.4015 67.458 35.3961 67.4781 35.3921L67.5101 35.8169C67.4741 35.8289 67.4253 35.841 67.3639 35.853C67.3038 35.8663 67.2296 35.873 67.1415 35.873C67.0079 35.873 66.8823 35.8443 66.7648 35.7869C66.6472 35.7294 66.5571 35.6419 66.4943 35.5244C66.4315 35.4068 66.4148 35.2586 66.4442 35.0796L66.9491 32.0179Z" fill="#131313"/>
<path d="M68.1573 35.8329L68.6703 32.7553H69.1431L68.6302 35.8329H68.1573ZM69.051 32.2343C68.9588 32.2343 68.8793 32.203 68.8125 32.1402C68.7471 32.0774 68.7143 32.0019 68.7143 31.9138C68.7143 31.8256 68.7471 31.7501 68.8125 31.6873C68.8793 31.6246 68.9588 31.5932 69.051 31.5932C69.1431 31.5932 69.2219 31.6246 69.2874 31.6873C69.3542 31.7501 69.3876 31.8256 69.3876 31.9138C69.3876 32.0019 69.3542 32.0774 69.2874 32.1402C69.2219 32.203 69.1431 32.2343 69.051 32.2343Z" fill="#131313"/>
<path d="M70.7666 35.8971C70.4834 35.8971 70.2463 35.8296 70.0553 35.6947C69.8643 35.5598 69.7294 35.3708 69.6506 35.1276C69.5731 34.8845 69.5604 34.6013 69.6125 34.2781C69.6633 33.9628 69.7641 33.6883 69.9151 33.4546C70.0673 33.2195 70.2563 33.0378 70.4821 32.9096C70.7092 32.78 70.959 32.7152 71.2315 32.7152C71.5146 32.7152 71.7511 32.7833 71.9408 32.9196C72.1318 33.0545 72.2667 33.2442 72.3455 33.4886C72.4243 33.7318 72.4377 34.0163 72.3856 34.3422C72.3348 34.6548 72.2326 34.9279 72.079 35.1617C71.9267 35.3941 71.7377 35.5751 71.512 35.7047C71.2876 35.8329 71.0391 35.8971 70.7666 35.8971ZM70.7746 35.4723C70.991 35.4723 71.1787 35.4168 71.3377 35.306C71.498 35.1951 71.6275 35.0488 71.7264 34.8672C71.8266 34.6855 71.894 34.4891 71.9287 34.2781C71.9608 34.0777 71.9595 33.8914 71.9247 33.7191C71.89 33.5454 71.8159 33.4058 71.7023 33.3003C71.5888 33.1934 71.4292 33.14 71.2234 33.14C71.007 33.14 70.818 33.1961 70.6564 33.3083C70.4961 33.4205 70.3665 33.5681 70.2677 33.7511C70.1688 33.9341 70.1027 34.1312 70.0693 34.3422C70.0373 34.5426 70.0379 34.7289 70.0713 34.9012C70.1061 35.0722 70.1802 35.2105 70.2937 35.316C70.4086 35.4202 70.5689 35.4723 70.7746 35.4723Z" fill="#131313"/>
<path d="M73.6404 33.9815L73.3358 35.8329H72.863L73.3759 32.7553H73.8327L73.7526 33.2362H73.7927C73.8888 33.0799 74.0191 32.9543 74.1834 32.8595C74.3477 32.7633 74.546 32.7152 74.7785 32.7152C74.9842 32.7152 75.1578 32.758 75.2994 32.8435C75.4423 32.9276 75.5432 33.0558 75.602 33.2282C75.6621 33.3991 75.6708 33.6155 75.628 33.8774L75.2994 35.8329H74.8266L75.1471 33.9094C75.1872 33.669 75.1558 33.4806 75.053 33.3444C74.9514 33.2081 74.7905 33.14 74.5701 33.14C74.4178 33.14 74.2769 33.1727 74.1473 33.2382C74.0191 33.3036 73.9102 33.3991 73.8207 33.5247C73.7325 33.6503 73.6724 33.8026 73.6404 33.9815Z" fill="#131313"/>
<path d="M78.7442 33.4446L78.2954 33.5648C78.2794 33.4926 78.2513 33.4232 78.2113 33.3564C78.1725 33.2883 78.1124 33.2328 78.0309 33.1901C77.9508 33.146 77.8412 33.124 77.7023 33.124C77.514 33.124 77.3503 33.1674 77.2114 33.2542C77.0725 33.3397 76.993 33.4486 76.973 33.5808C76.9529 33.697 76.9797 33.7899 77.0531 33.8593C77.1266 33.9288 77.2495 33.9855 77.4218 34.0296L77.8626 34.1418C78.1271 34.21 78.3154 34.3121 78.4277 34.4484C78.5412 34.5833 78.5799 34.759 78.5439 34.9754C78.5145 35.1517 78.4377 35.3093 78.3134 35.4482C78.1892 35.5872 78.0303 35.6967 77.8366 35.7768C77.6429 35.857 77.4271 35.8971 77.1894 35.8971C76.8728 35.8971 76.623 35.8289 76.44 35.6927C76.257 35.5551 76.1595 35.3561 76.1475 35.0956L76.6203 34.9834C76.6324 35.1477 76.6911 35.2719 76.7967 35.3561C76.9035 35.4389 77.0531 35.4803 77.2455 35.4803C77.4659 35.4803 77.6496 35.4335 77.7965 35.34C77.9434 35.2452 78.0269 35.1317 78.047 34.9994C78.067 34.8912 78.0456 34.801 77.9828 34.7289C77.9214 34.6568 77.8145 34.6027 77.6622 34.5666L77.1733 34.4464C76.9008 34.3783 76.7098 34.2741 76.6003 34.1338C76.4921 33.9936 76.456 33.8172 76.4921 33.6049C76.5215 33.4312 76.5963 33.2776 76.7165 33.144C76.8381 33.0104 76.9903 32.9056 77.1733 32.8294C77.3577 32.7533 77.5581 32.7152 77.7745 32.7152C78.079 32.7152 78.3068 32.782 78.4577 32.9156C78.6087 33.0478 78.7042 33.2242 78.7442 33.4446Z" fill="#131313"/>
<path d="M79.9129 35.2719L79.8407 35.4883C79.7926 35.6406 79.7312 35.8036 79.6564 35.9772C79.5816 36.1509 79.5075 36.3145 79.434 36.4681C79.3605 36.6217 79.3011 36.7439 79.2557 36.8348H78.895C78.9244 36.7493 78.9645 36.6364 79.0152 36.4962C79.066 36.3559 79.1201 36.1996 79.1775 36.0273C79.235 35.855 79.2877 35.678 79.3358 35.4963L79.3999 35.2719H79.9129Z" fill="#131313"/>
<path d="M83.522 31.7294L82.8407 35.8329H82.3438L83.0251 31.7294H83.522Z" fill="#131313"/>
<path d="M84.8229 37.0512C84.5931 37.0512 84.4008 37.0218 84.2458 36.963C84.0909 36.9056 83.9666 36.8294 83.8731 36.7346C83.7796 36.6411 83.7088 36.5409 83.6607 36.434L84.0855 36.1696C84.1176 36.2257 84.159 36.2898 84.2097 36.3619C84.2605 36.4354 84.3373 36.4988 84.4402 36.5523C84.5444 36.607 84.6906 36.6344 84.879 36.6344C85.1261 36.6344 85.3425 36.5743 85.5282 36.4541C85.7138 36.3339 85.8287 36.1455 85.8728 35.889L85.969 35.2639H85.9289C85.8862 35.32 85.8267 35.3895 85.7506 35.4723C85.6744 35.5538 85.5723 35.6266 85.444 35.6907C85.3158 35.7535 85.1515 35.7849 84.9511 35.7849C84.7013 35.7849 84.4876 35.7261 84.3099 35.6085C84.1323 35.491 84.0047 35.32 83.9272 35.0956C83.8511 34.8712 83.8397 34.5987 83.8932 34.2781C83.9453 33.9628 84.0454 33.6883 84.1937 33.4546C84.3433 33.2195 84.5277 33.0378 84.7467 32.9096C84.9658 32.78 85.2049 32.7152 85.4641 32.7152C85.6644 32.7152 85.818 32.7486 85.9249 32.8154C86.0331 32.8809 86.1119 32.9557 86.1613 33.0398C86.2108 33.1226 86.2482 33.1908 86.2735 33.2442H86.3216L86.4018 32.7553H86.8586L86.3376 35.9211C86.2936 36.1856 86.1981 36.4006 86.0511 36.5663C85.9042 36.7333 85.7239 36.8555 85.5101 36.933C85.2964 37.0118 85.0673 37.0512 84.8229 37.0512ZM85.0713 35.3601C85.2597 35.3601 85.4273 35.3167 85.5742 35.2298C85.7225 35.143 85.8454 35.0181 85.9429 34.8551C86.0404 34.6922 86.1079 34.4972 86.1453 34.2701C86.1827 34.0483 86.18 33.8526 86.1373 33.683C86.0945 33.5134 86.0137 33.3804 85.8948 33.2843C85.7773 33.1881 85.623 33.14 85.432 33.14C85.2303 33.14 85.056 33.1908 84.909 33.2923C84.7634 33.3938 84.6452 33.5301 84.5544 33.701C84.4635 33.872 84.4008 34.0617 84.366 34.2701C84.3313 34.4838 84.3326 34.6728 84.37 34.8371C84.4074 35.0001 84.4836 35.1283 84.5985 35.2218C84.7147 35.314 84.8723 35.3601 85.0713 35.3601Z" fill="#131313"/>
<path d="M87.9887 33.9815L87.6841 35.8329H87.2113L87.7242 32.7553H88.181L88.1009 33.2362H88.141C88.2371 33.0799 88.3674 32.9543 88.5317 32.8595C88.696 32.7633 88.8943 32.7152 89.1268 32.7152C89.3325 32.7152 89.5061 32.758 89.6477 32.8435C89.7906 32.9276 89.8915 33.0558 89.9503 33.2282C90.0104 33.3991 90.0191 33.6155 89.9763 33.8774L89.6477 35.8329H89.1749L89.4954 33.9094C89.5355 33.669 89.5041 33.4806 89.4013 33.3444C89.2997 33.2081 89.1388 33.14 88.9184 33.14C88.7661 33.14 88.6252 33.1727 88.4956 33.2382C88.3674 33.3036 88.2585 33.3991 88.169 33.5247C88.0808 33.6503 88.0207 33.8026 87.9887 33.9815Z" fill="#131313"/>
<path d="M90.5118 35.8329L91.0247 32.7553H91.4976L90.9847 35.8329H90.5118ZM91.4054 32.2343C91.3133 32.2343 91.2338 32.203 91.167 32.1402C91.1015 32.0774 91.0688 32.0019 91.0688 31.9138C91.0688 31.8256 91.1015 31.7501 91.167 31.6873C91.2338 31.6246 91.3133 31.5932 91.4054 31.5932C91.4976 31.5932 91.5764 31.6246 91.6419 31.6873C91.7087 31.7501 91.7421 31.8256 91.7421 31.9138C91.7421 32.0019 91.7087 32.0774 91.6419 32.1402C91.5764 32.203 91.4976 32.2343 91.4054 32.2343Z" fill="#131313"/>
<path d="M93.7021 32.7553L93.638 33.156H92.0431L92.1072 32.7553H93.7021ZM92.6923 32.0179H93.1652L92.6763 34.9513C92.6549 35.0849 92.6582 35.1851 92.6863 35.2519C92.7157 35.3173 92.7598 35.3614 92.8185 35.3841C92.8786 35.4055 92.9434 35.4162 93.0129 35.4162C93.065 35.4162 93.1077 35.4135 93.1411 35.4082C93.1745 35.4015 93.2012 35.3961 93.2213 35.3921L93.2533 35.8169C93.2173 35.8289 93.1685 35.841 93.1071 35.853C93.047 35.8663 92.9728 35.873 92.8847 35.873C92.7511 35.873 92.6255 35.8443 92.508 35.7869C92.3904 35.7294 92.3002 35.6419 92.2375 35.5244C92.1747 35.4068 92.158 35.2586 92.1874 35.0796L92.6923 32.0179Z" fill="#131313"/>
<path d="M93.9005 35.8329L94.4135 32.7553H94.8863L94.3734 35.8329H93.9005ZM94.7942 32.2343C94.702 32.2343 94.6225 32.203 94.5557 32.1402C94.4903 32.0774 94.4575 32.0019 94.4575 31.9138C94.4575 31.8256 94.4903 31.7501 94.5557 31.6873C94.6225 31.6246 94.702 31.5932 94.7942 31.5932C94.8863 31.5932 94.9651 31.6246 95.0306 31.6873C95.0974 31.7501 95.1308 31.8256 95.1308 31.9138C95.1308 32.0019 95.0974 32.0774 95.0306 32.1402C94.9651 32.203 94.8863 32.2343 94.7942 32.2343Z" fill="#131313"/>
<path d="M96.0169 33.9815L95.7123 35.8329H95.2395L95.7524 32.7553H96.2092L96.1291 33.2362H96.1692C96.2653 33.0799 96.3956 32.9543 96.5599 32.8595C96.7242 32.7633 96.9226 32.7152 97.155 32.7152C97.3607 32.7152 97.5343 32.758 97.6759 32.8435C97.8189 32.9276 97.9197 33.0558 97.9785 33.2282C98.0386 33.3991 98.0473 33.6155 98.0045 33.8774L97.6759 35.8329H97.2031L97.5237 33.9094C97.5637 33.669 97.5323 33.4806 97.4295 33.3444C97.328 33.2081 97.167 33.14 96.9466 33.14C96.7943 33.14 96.6534 33.1727 96.5238 33.2382C96.3956 33.3036 96.2867 33.3991 96.1972 33.5247C96.1091 33.6503 96.049 33.8026 96.0169 33.9815Z" fill="#131313"/>
<path d="M99.5899 37.0512C99.3602 37.0512 99.1678 37.0218 99.0129 36.963C98.8579 36.9056 98.7337 36.8294 98.6402 36.7346C98.5467 36.6411 98.4759 36.5409 98.4278 36.434L98.8526 36.1696C98.8847 36.2257 98.926 36.2898 98.9768 36.3619C99.0276 36.4354 99.1044 36.4988 99.2072 36.5523C99.3114 36.607 99.4577 36.6344 99.646 36.6344C99.8932 36.6344 100.11 36.5743 100.295 36.4541C100.481 36.3339 100.596 36.1455 100.64 35.889L100.736 35.2639H100.696C100.653 35.32 100.594 35.3895 100.518 35.4723C100.441 35.5538 100.339 35.6266 100.211 35.6907C100.083 35.7535 99.9185 35.7849 99.7182 35.7849C99.4684 35.7849 99.2547 35.7261 99.077 35.6085C98.8993 35.491 98.7718 35.32 98.6943 35.0956C98.6182 34.8712 98.6068 34.5987 98.6602 34.2781C98.7123 33.9628 98.8125 33.6883 98.9608 33.4546C99.1104 33.2195 99.2947 33.0378 99.5138 32.9096C99.7329 32.78 99.972 32.7152 100.231 32.7152C100.431 32.7152 100.585 32.7486 100.692 32.8154C100.8 32.8809 100.879 32.9557 100.928 33.0398C100.978 33.1226 101.015 33.1908 101.041 33.2442H101.089L101.169 32.7553H101.626L101.105 35.9211C101.061 36.1856 100.965 36.4006 100.818 36.5663C100.671 36.7333 100.491 36.8555 100.277 36.933C100.063 37.0118 99.8344 37.0512 99.5899 37.0512ZM99.8384 35.3601C100.027 35.3601 100.194 35.3167 100.341 35.2298C100.49 35.143 100.612 35.0181 100.71 34.8551C100.808 34.6922 100.875 34.4972 100.912 34.2701C100.95 34.0483 100.947 33.8526 100.904 33.683C100.862 33.5134 100.781 33.3804 100.662 33.2843C100.544 33.1881 100.39 33.14 100.199 33.14C99.9974 33.14 99.823 33.1908 99.6761 33.2923C99.5305 33.3938 99.4123 33.5301 99.3214 33.701C99.2306 33.872 99.1678 34.0617 99.1331 34.2701C99.0984 34.4838 99.0997 34.6728 99.1371 34.8371C99.1745 35.0001 99.2507 35.1283 99.3655 35.2218C99.4817 35.314 99.6394 35.3601 99.8384 35.3601Z" fill="#131313"/>
<path d="M105.417 32.7553L105.353 33.156H103.758L103.822 32.7553H105.417ZM104.407 32.0179H104.88L104.391 34.9513C104.369 35.0849 104.373 35.1851 104.401 35.2519C104.43 35.3173 104.474 35.3614 104.533 35.3841C104.593 35.4055 104.658 35.4162 104.727 35.4162C104.779 35.4162 104.822 35.4135 104.856 35.4082C104.889 35.4015 104.916 35.3961 104.936 35.3921L104.968 35.8169C104.932 35.8289 104.883 35.841 104.822 35.853C104.761 35.8663 104.687 35.873 104.599 35.873C104.466 35.873 104.34 35.8443 104.222 35.7869C104.105 35.7294 104.015 35.6419 103.952 35.5244C103.889 35.4068 103.872 35.2586 103.902 35.0796L104.407 32.0179Z" fill="#131313"/>
<path d="M106.852 35.8971C106.569 35.8971 106.332 35.8296 106.141 35.6947C105.95 35.5598 105.815 35.3708 105.736 35.1276C105.659 34.8845 105.646 34.6013 105.698 34.2781C105.749 33.9628 105.85 33.6883 106.001 33.4546C106.153 33.2195 106.342 33.0378 106.568 32.9096C106.795 32.78 107.045 32.7152 107.317 32.7152C107.6 32.7152 107.837 32.7833 108.026 32.9196C108.217 33.0545 108.352 33.2442 108.431 33.4886C108.51 33.7318 108.523 34.0163 108.471 34.3422C108.42 34.6548 108.318 34.9279 108.165 35.1617C108.012 35.3941 107.823 35.5751 107.598 35.7047C107.373 35.8329 107.125 35.8971 106.852 35.8971ZM106.86 35.4723C107.077 35.4723 107.264 35.4168 107.423 35.306C107.584 35.1951 107.713 35.0488 107.812 34.8672C107.912 34.6855 107.98 34.4891 108.014 34.2781C108.046 34.0777 108.045 33.8914 108.01 33.7191C107.976 33.5454 107.902 33.4058 107.788 33.3003C107.674 33.1934 107.515 33.14 107.309 33.14C107.093 33.14 106.904 33.1961 106.742 33.3083C106.582 33.4205 106.452 33.5681 106.353 33.7511C106.254 33.9341 106.188 34.1312 106.155 34.3422C106.123 34.5426 106.124 34.7289 106.157 34.9012C106.192 35.0722 106.266 35.2105 106.379 35.316C106.494 35.4202 106.655 35.4723 106.86 35.4723Z" fill="#131313"/>
<path d="M108.949 35.8329L109.462 32.7553H109.918L109.838 33.2362H109.878C109.97 33.0719 110.095 32.9443 110.253 32.8535C110.412 32.7613 110.592 32.7152 110.792 32.7152C110.992 32.7152 111.153 32.7613 111.275 32.8535C111.396 32.9443 111.481 33.0719 111.529 33.2362H111.561C111.666 33.0759 111.804 32.949 111.978 32.8555C112.153 32.762 112.351 32.7152 112.571 32.7152C112.844 32.7152 113.053 32.8014 113.2 32.9737C113.349 33.146 113.393 33.4125 113.333 33.7732L112.988 35.8329H112.515L112.86 33.7732C112.896 33.5447 112.86 33.3824 112.752 33.2863C112.645 33.1888 112.507 33.14 112.339 33.14C112.122 33.14 111.944 33.2048 111.804 33.3344C111.664 33.4639 111.577 33.6289 111.545 33.8293L111.209 35.8329H110.728L111.08 33.7251C111.109 33.5488 111.075 33.4072 110.98 33.3003C110.885 33.1934 110.748 33.14 110.568 33.14C110.445 33.14 110.324 33.1734 110.207 33.2402C110.089 33.3056 109.988 33.3965 109.904 33.5127C109.82 33.6276 109.766 33.7598 109.742 33.9094L109.421 35.8329H108.949Z" fill="#131313"/>
<path d="M115.123 35.8971C114.84 35.8971 114.603 35.8296 114.412 35.6947C114.221 35.5598 114.086 35.3708 114.007 35.1276C113.929 34.8845 113.917 34.6013 113.969 34.2781C114.02 33.9628 114.12 33.6883 114.271 33.4546C114.424 33.2195 114.613 33.0378 114.838 32.9096C115.065 32.78 115.315 32.7152 115.588 32.7152C115.871 32.7152 116.107 32.7833 116.297 32.9196C116.488 33.0545 116.623 33.2442 116.702 33.4886C116.781 33.7318 116.794 34.0163 116.742 34.3422C116.691 34.6548 116.589 34.9279 116.435 35.1617C116.283 35.3941 116.094 35.5751 115.868 35.7047C115.644 35.8329 115.395 35.8971 115.123 35.8971ZM115.131 35.4723C115.347 35.4723 115.535 35.4168 115.694 35.306C115.854 35.1951 115.984 35.0488 116.083 34.8672C116.183 34.6855 116.25 34.4891 116.285 34.2781C116.317 34.0777 116.316 33.8914 116.281 33.7191C116.246 33.5454 116.172 33.4058 116.059 33.3003C115.945 33.1934 115.785 33.14 115.58 33.14C115.363 33.14 115.174 33.1961 115.013 33.3083C114.852 33.4205 114.723 33.5681 114.624 33.7511C114.525 33.9341 114.459 34.1312 114.426 34.3422C114.394 34.5426 114.394 34.7289 114.428 34.9012C114.462 35.0722 114.536 35.2105 114.65 35.316C114.765 35.4202 114.925 35.4723 115.131 35.4723Z" fill="#131313"/>
<path d="M117.219 35.8329L117.732 32.7553H118.189L118.109 33.2201H118.141C118.221 33.0679 118.343 32.9443 118.508 32.8495C118.672 32.7546 118.846 32.7072 119.031 32.7072C119.067 32.7072 119.11 32.7079 119.161 32.7092C119.212 32.7092 119.251 32.7112 119.279 32.7152L119.199 33.1961C119.183 33.1921 119.147 33.1861 119.091 33.1781C119.035 33.1687 118.974 33.164 118.91 33.164C118.761 33.164 118.622 33.1954 118.496 33.2582C118.369 33.3197 118.262 33.4052 118.177 33.5147C118.092 33.6229 118.037 33.7464 118.013 33.8854L117.692 35.8329H117.219Z" fill="#131313"/>
<path d="M119.33 35.8329L119.843 32.7553H120.299L120.219 33.2201H120.251C120.331 33.0679 120.454 32.9443 120.618 32.8495C120.782 32.7546 120.957 32.7072 121.141 32.7072C121.177 32.7072 121.22 32.7079 121.271 32.7092C121.322 32.7092 121.361 32.7112 121.389 32.7152L121.309 33.1961C121.293 33.1921 121.257 33.1861 121.201 33.1781C121.145 33.1687 121.085 33.164 121.021 33.164C120.871 33.164 120.733 33.1954 120.606 33.2582C120.479 33.3197 120.373 33.4052 120.287 33.5147C120.202 33.6229 120.147 33.7464 120.123 33.8854L119.802 35.8329H119.33Z" fill="#131313"/>
<path d="M122.617 35.8971C122.333 35.8971 122.096 35.8296 121.905 35.6947C121.714 35.5598 121.579 35.3708 121.501 35.1276C121.423 34.8845 121.41 34.6013 121.463 34.2781C121.513 33.9628 121.614 33.6883 121.765 33.4546C121.917 33.2195 122.106 33.0378 122.332 32.9096C122.559 32.78 122.809 32.7152 123.081 32.7152C123.365 32.7152 123.601 32.7833 123.791 32.9196C123.982 33.0545 124.117 33.2442 124.196 33.4886C124.274 33.7318 124.288 34.0163 124.236 34.3422C124.185 34.6548 124.083 34.9279 123.929 35.1617C123.777 35.3941 123.588 35.5751 123.362 35.7047C123.138 35.8329 122.889 35.8971 122.617 35.8971ZM122.625 35.4723C122.841 35.4723 123.029 35.4168 123.188 35.306C123.348 35.1951 123.478 35.0488 123.576 34.8672C123.677 34.6855 123.744 34.4891 123.779 34.2781C123.811 34.0777 123.809 33.8914 123.775 33.7191C123.74 33.5454 123.666 33.4058 123.552 33.3003C123.439 33.1934 123.279 33.14 123.073 33.14C122.857 33.14 122.668 33.1961 122.506 33.3083C122.346 33.4205 122.217 33.5681 122.118 33.7511C122.019 33.9341 121.953 34.1312 121.919 34.3422C121.887 34.5426 121.888 34.7289 121.921 34.9012C121.956 35.0722 122.03 35.2105 122.144 35.316C122.259 35.4202 122.419 35.4723 122.625 35.4723Z" fill="#131313"/>
<path d="M125.306 35.8329L124.881 32.7553H125.378L125.65 35.1116H125.682L126.732 32.7553H127.237L127.494 35.1036H127.526L128.584 32.7553H129.08L127.63 35.8329H127.165L126.884 33.4686H126.836L125.77 35.8329H125.306Z" fill="#131313"/>
<path d="M57.7873 19.2142C58.3279 19.0442 58.828 18.7659 59.2574 18.3962C59.6868 18.0265 60.0364 17.5732 60.2848 17.064L64.6239 17.8884C63.8621 20.4484 61.9963 22.2805 59.1277 23.2736C53.9738 25.0623 49.572 22.7047 48.0388 18.2114C46.5057 13.718 48.521 9.11851 53.294 7.46965C57.7006 5.94132 62.1361 8.21694 63.7175 12.773C63.9328 13.3806 64.083 14.0093 64.1658 14.6485L53.4627 18.3608C54.5571 19.7252 56.1337 19.7879 57.7873 19.2142ZM58.6552 12.7633C58.2412 12.1128 57.6113 11.6287 56.8761 11.396C56.1409 11.1632 55.3472 11.1968 54.6342 11.4906C52.9131 12.0836 52.0597 13.3275 52.1754 15.0101L58.6552 12.7633Z" fill="#131313"/>
<path d="M82.1535 13.959V23.7654H77.366V14.6677C77.366 12.691 76.1222 11.775 74.589 11.775C72.8341 11.775 71.6191 12.7923 71.6191 15.0631V23.7654H66.8317V7.80714H71.6191V9.30177C72.4821 8.12057 74.078 7.37328 76.1849 7.37328C79.4103 7.37328 82.1535 9.64885 82.1535 13.959Z" fill="#131313"/>
<path d="M91.5067 12.3909V18.0413C91.5067 19.4154 92.6879 19.5408 94.7948 19.4154V23.7545C88.5272 24.3957 86.7192 22.5106 86.7192 18.0413V12.3909H84.1639V7.79622H86.7192V4.75894L91.5067 3.31257V7.78186H94.7948V12.3764L91.5067 12.3909Z" fill="#131313"/>
<path d="M96.3906 15.776C96.3839 14.1011 96.8745 12.4619 97.8002 11.066C98.7258 9.67017 100.045 8.58043 101.59 7.93484C103.136 7.28925 104.838 7.11688 106.482 7.43953C108.125 7.76219 109.636 8.56542 110.823 9.74739C112.01 10.9294 112.819 12.437 113.148 14.0792C113.477 15.7214 113.312 17.4244 112.672 18.9725C112.033 20.5205 110.948 21.8439 109.556 22.7752C108.164 23.7064 106.527 24.2035 104.852 24.2035C103.74 24.2164 102.637 24.0074 101.607 23.5889C100.576 23.1703 99.6401 22.5507 98.8522 21.766C98.0644 20.9813 97.4409 20.0473 97.0183 19.0188C96.5956 17.9904 96.3822 16.888 96.3906 15.776ZM108.521 15.776C108.503 15.0534 108.272 14.3522 107.857 13.7601C107.443 13.168 106.862 12.7115 106.189 12.4476C105.517 12.1836 104.781 12.1241 104.074 12.2764C103.367 12.4287 102.721 12.7861 102.217 13.3039C101.713 13.8216 101.372 14.4766 101.238 15.1869C101.104 15.8973 101.183 16.6314 101.464 17.2973C101.745 17.9632 102.217 18.5312 102.819 18.9304C103.422 19.3296 104.129 19.5422 104.852 19.5414C105.346 19.5548 105.837 19.4658 106.294 19.28C106.752 19.0942 107.166 18.8157 107.511 18.462C107.855 18.1083 108.123 17.687 108.297 17.2248C108.471 16.7625 108.547 16.2692 108.521 15.776Z" fill="#131313"/>
<path d="M125.602 7.47509V12.9038C123.621 12.5856 120.81 13.3859 120.81 16.5438V23.7757H116.022V7.81738H120.81V10.6571C121.451 8.49724 123.587 7.47509 125.602 7.47509Z" fill="#131313"/>
<path d="M133.644 7.79741H136.614V12.3921H133.644V23.7654H128.857V12.4017H126.731V7.80707H128.871C128.871 3.33779 131.33 0.652402 136.629 0.975424V5.57007C134.826 5.40132 133.644 5.92678 133.644 7.79741Z" fill="#131313"/>
<path d="M154.168 7.79731L148.71 23.2832C146.922 28.3599 144.082 30.3703 139.612 30.1486V25.6938C141.845 25.6938 142.901 24.9899 143.604 23.0421L137.25 7.81662H142.52L146.063 17.5844L149.062 7.81662L154.168 7.79731Z" fill="#131313"/>
<path d="M152.732 21.1709C152.732 20.5711 152.91 19.9848 153.243 19.4861C153.576 18.9874 154.05 18.5987 154.604 18.3692C155.158 18.1396 155.768 18.0796 156.356 18.1966C156.944 18.3136 157.485 18.6024 157.909 19.0266C158.333 19.4507 158.622 19.9909 158.739 20.5792C158.856 21.1675 158.796 21.7772 158.566 22.3314C158.337 22.8855 157.948 23.3591 157.449 23.6923C156.95 24.0255 156.364 24.2034 155.764 24.2034C154.962 24.1983 154.193 23.8772 153.626 23.3096C153.058 22.742 152.737 21.9736 152.732 21.1709Z" fill="#131313"/>
</svg>
