<svg width="141" height="107" viewBox="0 0 141 107" fill="none" xmlns="http://www.w3.org/2000/svg">
<path d="M133.041 13.4453H8.69727V14.1843H133.041V13.4453Z" fill="#DEDFE0"/>
<path d="M28.7056 7.63727H12.3337C10.2276 7.63727 8.51318 5.92286 8.51318 3.81679C8.51318 1.71072 10.2276 0 12.3337 0H28.7093C30.8153 0 32.5298 1.71441 32.5298 3.82048C32.5298 5.92655 30.8153 7.64096 28.7093 7.64096L28.7056 7.63727Z" fill="#DFDFDF"/>
<path d="M133.041 43.9922H8.69727V44.7312H133.041V43.9922Z" fill="#DEDFE0"/>
<path d="M28.7056 38.1878H12.3337C10.2276 38.1878 8.51318 36.4734 8.51318 34.3674C8.51318 32.2613 10.2276 30.5469 12.3337 30.5469H28.7093C30.8153 30.5469 32.5298 32.2613 32.5298 34.3674C32.5298 36.4734 30.8153 38.1878 28.7093 38.1878H28.7056Z" fill="#DFDFDF"/>
<path d="M133.041 74.5312H8.69727V75.2702H133.041V74.5312Z" fill="#DEDFE0"/>
<path d="M28.7056 68.7269H12.3337C10.2276 68.7269 8.51318 67.0125 8.51318 64.9064C8.51318 62.8003 10.2276 61.0859 12.3337 61.0859H28.7093C30.8153 61.0859 32.5298 62.8003 32.5298 64.9064C32.5298 67.0125 30.8153 68.7269 28.7093 68.7269H28.7056Z" fill="#DFDFDF"/>
<path d="M68.2022 14.5561H8.39553C8.15543 14.5561 7.95898 14.2235 7.95898 13.8171C7.95898 13.4107 8.15543 13.0781 8.39553 13.0781H68.2022C68.4423 13.0781 68.6387 13.4107 68.6387 13.8171C68.6387 14.2235 68.4423 14.5561 68.2022 14.5561Z" fill="#1F2105"/>
<path d="M99.4261 45.1029H8.39553C8.15543 45.1029 7.95898 44.7704 7.95898 44.364C7.95898 43.9575 8.15543 43.625 8.39553 43.625H99.4261C99.6662 43.625 99.8626 43.9575 99.8626 44.364C99.8626 44.7704 99.6662 45.1029 99.4261 45.1029Z" fill="#1F2105"/>
<path d="M38.2989 75.642H8.39553C8.15543 75.642 7.95898 75.3095 7.95898 74.903C7.95898 74.4966 8.15543 74.1641 8.39553 74.1641H38.2989C38.539 74.1641 38.7354 74.4966 38.7354 74.903C38.7354 75.3095 38.539 75.642 38.2989 75.642Z" fill="#1F2105"/>
<path d="M1.274 94.5406H3.185L7.67 102.471L7.514 102.588V94.5406H8.697V103.641H6.968L2.301 95.4376L2.457 95.3206V103.641H1.274V94.5406ZM13.5315 103.836C12.8988 103.836 12.3441 103.688 11.8675 103.394C11.3908 103.09 11.0225 102.679 10.7625 102.159C10.5025 101.63 10.3725 101.041 10.3725 100.391C10.3725 99.7406 10.5025 99.1556 10.7625 98.6356C11.0225 98.107 11.3908 97.6953 11.8675 97.4006C12.3441 97.0973 12.8988 96.9456 13.5315 96.9456C14.1728 96.9456 14.7318 97.0973 15.2085 97.4006C15.6938 97.6953 16.0665 98.107 16.3265 98.6356C16.5865 99.1556 16.7165 99.7406 16.7165 100.391C16.7165 101.041 16.5865 101.63 16.3265 102.159C16.0665 102.679 15.6938 103.09 15.2085 103.394C14.7318 103.688 14.1728 103.836 13.5315 103.836ZM13.5315 102.744C13.9388 102.744 14.2898 102.644 14.5845 102.445C14.8791 102.245 15.1045 101.968 15.2605 101.613C15.4165 101.257 15.4945 100.85 15.4945 100.391C15.4945 99.9313 15.4165 99.524 15.2605 99.1686C15.1045 98.8133 14.8791 98.536 14.5845 98.3366C14.2898 98.1373 13.9388 98.0376 13.5315 98.0376C13.1328 98.0376 12.7861 98.1373 12.4915 98.3366C12.2055 98.536 11.9845 98.8133 11.8285 99.1686C11.6725 99.524 11.5945 99.9313 11.5945 100.391C11.5945 100.85 11.6725 101.257 11.8285 101.613C11.9845 101.968 12.2055 102.245 12.4915 102.445C12.7861 102.644 13.1328 102.744 13.5315 102.744ZM18.9454 95.5156L20.1414 95.1256V103.641H18.9454V95.5156ZM17.3594 97.1406H21.9094V98.1546H17.3594V97.1406ZM23.0908 94.2806H24.2868V98.6226H24.1178C24.2912 98.0766 24.5728 97.6606 24.9628 97.3746C25.3528 97.0886 25.8468 96.9456 26.4448 96.9456C26.9042 96.9456 27.3028 97.0496 27.6408 97.2576C27.9788 97.4656 28.2388 97.769 28.4208 98.1676C28.6115 98.5576 28.7068 99.0256 28.7068 99.5716V103.641H27.5108V99.8316C27.5108 99.1903 27.3938 98.7266 27.1598 98.4406C26.9258 98.146 26.5532 97.9986 26.0418 97.9986C25.4872 97.9986 25.0538 98.1893 24.7418 98.5706C24.4385 98.9433 24.2868 99.4633 24.2868 100.131V103.641H23.0908V94.2806ZM30.6709 97.1406H31.8669V103.641H30.6709V97.1406ZM31.2689 95.9446C31.0522 95.9446 30.8659 95.871 30.7099 95.7236C30.5539 95.5676 30.4759 95.3813 30.4759 95.1646C30.4759 94.948 30.5495 94.7703 30.6969 94.6316C30.8529 94.4843 31.0435 94.4106 31.2689 94.4106C31.4942 94.4106 31.6805 94.4843 31.8279 94.6316C31.9752 94.7703 32.0489 94.948 32.0489 95.1646C32.0489 95.3813 31.9709 95.5676 31.8149 95.7236C31.6675 95.871 31.4855 95.9446 31.2689 95.9446ZM33.9073 97.1406H35.1033V98.7656L34.9733 98.5836C35.1293 98.055 35.4023 97.652 35.7923 97.3746C36.1909 97.0886 36.6806 96.9456 37.2613 96.9456C37.7206 96.9456 38.1193 97.0496 38.4573 97.2576C38.7953 97.4656 39.0553 97.769 39.2373 98.1676C39.4279 98.5576 39.5233 99.0256 39.5233 99.5716V103.641H38.3273V99.8316C38.3273 99.1903 38.2103 98.7266 37.9763 98.4406C37.7423 98.146 37.3696 97.9986 36.8583 97.9986C36.3036 97.9986 35.8703 98.1893 35.5583 98.5706C35.2549 98.9433 35.1033 99.4633 35.1033 100.131V103.641H33.9073V97.1406ZM43.9313 106.306C43.4459 106.306 43.0083 106.245 42.6183 106.124C42.2369 106.002 41.9033 105.812 41.6173 105.552V104.33C41.9033 104.624 42.2369 104.85 42.6183 105.006C42.9996 105.162 43.4156 105.24 43.8663 105.24C44.6116 105.24 45.1576 105.027 45.5043 104.603C45.8509 104.178 46.0243 103.589 46.0243 102.835V101.236L46.2323 101.457C46.0156 102.133 45.7123 102.635 45.3223 102.965C44.9409 103.294 44.4556 103.459 43.8663 103.459C43.2856 103.459 42.7786 103.324 42.3453 103.056C41.9206 102.787 41.5913 102.41 41.3573 101.925C41.1319 101.439 41.0193 100.885 41.0193 100.261C41.0193 99.628 41.1406 99.0603 41.3833 98.5576C41.6346 98.0463 41.9856 97.652 42.4363 97.3746C42.8956 97.0886 43.4156 96.9456 43.9963 96.9456C44.5943 96.9456 45.0623 97.0973 45.4003 97.4006C45.7383 97.6953 46.0026 98.172 46.1933 98.8306L46.0243 99.0386V97.1406H47.2203V103.056C47.2203 103.723 47.0859 104.299 46.8173 104.785C46.5486 105.279 46.1673 105.656 45.6733 105.916C45.1793 106.176 44.5986 106.306 43.9313 106.306ZM44.0873 102.38C44.4773 102.38 44.8153 102.289 45.1013 102.107C45.3959 101.916 45.6213 101.656 45.7773 101.327C45.9419 100.989 46.0243 100.603 46.0243 100.17C46.0243 99.745 45.9419 99.368 45.7773 99.0386C45.6213 98.7093 45.4003 98.458 45.1143 98.2846C44.8283 98.1026 44.5033 98.0116 44.1393 98.0116C43.7579 98.0116 43.4243 98.107 43.1383 98.2976C42.8523 98.4883 42.6313 98.7526 42.4753 99.0906C42.3193 99.4286 42.2413 99.8186 42.2413 100.261C42.2413 100.902 42.4059 101.418 42.7353 101.808C43.0646 102.189 43.5153 102.38 44.0873 102.38ZM52.5948 94.2806H53.7908V98.6226H53.6218C53.7951 98.0766 54.0768 97.6606 54.4668 97.3746C54.8568 97.0886 55.3508 96.9456 55.9488 96.9456C56.4081 96.9456 56.8068 97.0496 57.1448 97.2576C57.4828 97.4656 57.7428 97.769 57.9248 98.1676C58.1154 98.5576 58.2108 99.0256 58.2108 99.5716V103.641H57.0148V99.8316C57.0148 99.1903 56.8978 98.7266 56.6638 98.4406C56.4298 98.146 56.0571 97.9986 55.5458 97.9986C54.9911 97.9986 54.5578 98.1893 54.2458 98.5706C53.9424 98.9433 53.7908 99.4633 53.7908 100.131V103.641H52.5948V94.2806ZM61.9818 103.836C61.5484 103.836 61.1584 103.745 60.8118 103.563C60.4738 103.372 60.2051 103.112 60.0058 102.783C59.8151 102.453 59.7198 102.089 59.7198 101.691C59.7198 101.275 59.8194 100.906 60.0188 100.586C60.2181 100.265 60.4954 100.018 60.8508 99.8446C61.2148 99.6626 61.6264 99.5716 62.0858 99.5716C62.5711 99.5716 62.9784 99.6843 63.3078 99.9096C63.6458 100.126 63.8754 100.399 63.9968 100.729L63.8278 101.132V99.8186C63.8278 99.2553 63.6718 98.8176 63.3598 98.5056C63.0478 98.185 62.6231 98.0246 62.0858 98.0246C61.6958 98.0246 61.3318 98.1026 60.9938 98.2586C60.6558 98.406 60.3481 98.6226 60.0708 98.9086V97.6866C60.3741 97.4613 60.7034 97.2836 61.0588 97.1536C61.4141 97.015 61.8128 96.9456 62.2548 96.9456C62.8181 96.9456 63.3078 97.054 63.7238 97.2706C64.1398 97.4873 64.4561 97.8036 64.6728 98.2196C64.8981 98.627 65.0108 99.1166 65.0108 99.6886V103.641H63.8278V102.003L63.9968 102.315C63.8754 102.783 63.6371 103.155 63.2818 103.433C62.9351 103.701 62.5018 103.836 61.9818 103.836ZM62.3718 102.874C62.6664 102.874 62.9221 102.822 63.1388 102.718C63.3641 102.605 63.5331 102.453 63.6458 102.263C63.7671 102.072 63.8278 101.86 63.8278 101.626C63.8278 101.279 63.6978 100.997 63.4378 100.781C63.1778 100.564 62.8268 100.456 62.3848 100.456C61.9254 100.456 61.5701 100.564 61.3188 100.781C61.0674 100.989 60.9418 101.279 60.9418 101.652C60.9418 102.024 61.0674 102.323 61.3188 102.549C61.5701 102.765 61.9211 102.874 62.3718 102.874ZM66.9405 97.1406H68.1365V99.2336L67.9935 98.8566C68.0975 98.5186 68.2535 98.2066 68.4615 97.9206C68.6781 97.626 68.9468 97.392 69.2675 97.2186C69.5968 97.0366 69.9781 96.9456 70.4115 96.9456C70.9661 96.9456 71.4558 97.0973 71.8805 97.4006C72.3138 97.6953 72.6475 98.1026 72.8815 98.6226C73.1241 99.134 73.2455 99.706 73.2455 100.339C73.2455 101.023 73.1111 101.63 72.8425 102.159C72.5738 102.687 72.2098 103.099 71.7505 103.394C71.2998 103.688 70.8058 103.836 70.2685 103.836C69.7225 103.836 69.2415 103.688 68.8255 103.394C68.4181 103.09 68.1365 102.692 67.9805 102.198L68.1365 101.86V106.111H66.9405V97.1406ZM70.0215 102.757C70.4201 102.757 70.7711 102.657 71.0745 102.458C71.3778 102.25 71.6118 101.968 71.7765 101.613C71.9411 101.257 72.0235 100.85 72.0235 100.391C72.0235 99.94 71.9411 99.537 71.7765 99.1816C71.6205 98.8263 71.3951 98.549 71.1005 98.3496C70.8058 98.1503 70.4635 98.0506 70.0735 98.0506C69.6748 98.0506 69.3281 98.1546 69.0335 98.3626C68.7388 98.562 68.5091 98.8436 68.3445 99.2076C68.1885 99.5716 68.1105 99.9833 68.1105 100.443C68.1105 100.893 68.1841 101.292 68.3315 101.639C68.4875 101.985 68.7085 102.258 68.9945 102.458C69.2805 102.657 69.6228 102.757 70.0215 102.757ZM74.8115 97.1406H76.0075V99.2336L75.8645 98.8566C75.9685 98.5186 76.1245 98.2066 76.3325 97.9206C76.5492 97.626 76.8179 97.392 77.1385 97.2186C77.4679 97.0366 77.8492 96.9456 78.2825 96.9456C78.8372 96.9456 79.3269 97.0973 79.7515 97.4006C80.1849 97.6953 80.5185 98.1026 80.7525 98.6226C80.9952 99.134 81.1165 99.706 81.1165 100.339C81.1165 101.023 80.9822 101.63 80.7135 102.159C80.4449 102.687 80.0809 103.099 79.6215 103.394C79.1709 103.688 78.6769 103.836 78.1395 103.836C77.5935 103.836 77.1125 103.688 76.6965 103.394C76.2892 103.09 76.0075 102.692 75.8515 102.198L76.0075 101.86V106.111H74.8115V97.1406ZM77.8925 102.757C78.2912 102.757 78.6422 102.657 78.9455 102.458C79.2489 102.25 79.4829 101.968 79.6475 101.613C79.8122 101.257 79.8945 100.85 79.8945 100.391C79.8945 99.94 79.8122 99.537 79.6475 99.1816C79.4915 98.8263 79.2662 98.549 78.9715 98.3496C78.6769 98.1503 78.3345 98.0506 77.9445 98.0506C77.5459 98.0506 77.1992 98.1546 76.9045 98.3626C76.6099 98.562 76.3802 98.8436 76.2155 99.2076C76.0595 99.5716 75.9815 99.9833 75.9815 100.443C75.9815 100.893 76.0552 101.292 76.2025 101.639C76.3585 101.985 76.5795 102.258 76.8655 102.458C77.1515 102.657 77.4939 102.757 77.8925 102.757ZM85.7246 103.836C85.0313 103.836 84.4203 103.693 83.8916 103.407C83.3716 103.121 82.9643 102.718 82.6696 102.198C82.3836 101.669 82.2406 101.054 82.2406 100.352C82.2406 99.693 82.3663 99.108 82.6176 98.5966C82.869 98.0766 83.233 97.6736 83.7096 97.3876C84.1863 97.093 84.7583 96.9456 85.4256 96.9456C85.9803 96.9456 86.4656 97.0583 86.8816 97.2836C87.3063 97.5003 87.6313 97.821 87.8566 98.2456C88.0906 98.6616 88.2076 99.16 88.2076 99.7406V100.599H82.9686V99.7146H87.2326L87.0506 99.9226V99.7406C87.0506 99.1946 86.899 98.7743 86.5956 98.4796C86.301 98.1763 85.898 98.0246 85.3866 98.0246C84.962 98.0246 84.6066 98.12 84.3206 98.3106C84.0433 98.5013 83.8353 98.7656 83.6966 99.1036C83.5666 99.433 83.4973 99.823 83.4886 100.274V100.404C83.506 101.149 83.7226 101.725 84.1386 102.133C84.5546 102.531 85.131 102.731 85.8676 102.731C86.2576 102.731 86.6433 102.666 87.0246 102.536C87.406 102.406 87.7223 102.232 87.9736 102.016V103.16C87.7223 103.359 87.393 103.519 86.9856 103.641C86.587 103.771 86.1666 103.836 85.7246 103.836ZM89.792 97.1406H90.988V98.7656L90.858 98.5836C91.014 98.055 91.287 97.652 91.677 97.3746C92.0757 97.0886 92.5653 96.9456 93.146 96.9456C93.6053 96.9456 94.004 97.0496 94.342 97.2576C94.68 97.4656 94.94 97.769 95.122 98.1676C95.3127 98.5576 95.408 99.0256 95.408 99.5716V103.641H94.212V99.8316C94.212 99.1903 94.095 98.7266 93.861 98.4406C93.627 98.146 93.2543 97.9986 92.743 97.9986C92.1883 97.9986 91.755 98.1893 91.443 98.5706C91.1397 98.9433 90.988 99.4633 90.988 100.131V103.641H89.792V97.1406ZM97.372 97.1406H98.568V103.641H97.372V97.1406ZM97.97 95.9446C97.7534 95.9446 97.567 95.871 97.411 95.7236C97.255 95.5676 97.177 95.3813 97.177 95.1646C97.177 94.948 97.2507 94.7703 97.398 94.6316C97.554 94.4843 97.7447 94.4106 97.97 94.4106C98.1954 94.4106 98.3817 94.4843 98.529 94.6316C98.6764 94.7703 98.75 94.948 98.75 95.1646C98.75 95.3813 98.672 95.5676 98.516 95.7236C98.3687 95.871 98.1867 95.9446 97.97 95.9446ZM100.608 97.1406H101.804V98.7656L101.674 98.5836C101.83 98.055 102.103 97.652 102.493 97.3746C102.892 97.0886 103.382 96.9456 103.962 96.9456C104.422 96.9456 104.82 97.0496 105.158 97.2576C105.496 97.4656 105.756 97.769 105.938 98.1676C106.129 98.5576 106.224 99.0256 106.224 99.5716V103.641H105.028V99.8316C105.028 99.1903 104.911 98.7266 104.677 98.4406C104.443 98.146 104.071 97.9986 103.559 97.9986C103.005 97.9986 102.571 98.1893 102.259 98.5706C101.956 98.9433 101.804 99.4633 101.804 100.131V103.641H100.608V97.1406ZM110.632 106.306C110.147 106.306 109.709 106.245 109.319 106.124C108.938 106.002 108.604 105.812 108.318 105.552V104.33C108.604 104.624 108.938 104.85 109.319 105.006C109.701 105.162 110.117 105.24 110.567 105.24C111.313 105.24 111.859 105.027 112.205 104.603C112.552 104.178 112.725 103.589 112.725 102.835V101.236L112.933 101.457C112.717 102.133 112.413 102.635 112.023 102.965C111.642 103.294 111.157 103.459 110.567 103.459C109.987 103.459 109.48 103.324 109.046 103.056C108.622 102.787 108.292 102.41 108.058 101.925C107.833 101.439 107.72 100.885 107.72 100.261C107.72 99.628 107.842 99.0603 108.084 98.5576C108.336 98.0463 108.687 97.652 109.137 97.3746C109.597 97.0886 110.117 96.9456 110.697 96.9456C111.295 96.9456 111.763 97.0973 112.101 97.4006C112.439 97.6953 112.704 98.172 112.894 98.8306L112.725 99.0386V97.1406H113.921V103.056C113.921 103.723 113.787 104.299 113.518 104.785C113.25 105.279 112.868 105.656 112.374 105.916C111.88 106.176 111.3 106.306 110.632 106.306ZM110.788 102.38C111.178 102.38 111.516 102.289 111.802 102.107C112.097 101.916 112.322 101.656 112.478 101.327C112.643 100.989 112.725 100.603 112.725 100.17C112.725 99.745 112.643 99.368 112.478 99.0386C112.322 98.7093 112.101 98.458 111.815 98.2846C111.529 98.1026 111.204 98.0116 110.84 98.0116C110.459 98.0116 110.125 98.107 109.839 98.2976C109.553 98.4883 109.332 98.7526 109.176 99.0906C109.02 99.4286 108.942 99.8186 108.942 100.261C108.942 100.902 109.107 101.418 109.436 101.808C109.766 102.189 110.216 102.38 110.788 102.38ZM120.993 102.484L121.006 103.615L118.289 97.1406H119.55L121.63 102.276H121.11L123.346 97.1406H124.607L120.512 106.111H119.225L120.993 102.484ZM128.622 103.836C127.929 103.836 127.318 103.693 126.789 103.407C126.269 103.121 125.862 102.718 125.567 102.198C125.281 101.669 125.138 101.054 125.138 100.352C125.138 99.693 125.264 99.108 125.515 98.5966C125.766 98.0766 126.13 97.6736 126.607 97.3876C127.084 97.093 127.656 96.9456 128.323 96.9456C128.878 96.9456 129.363 97.0583 129.779 97.2836C130.204 97.5003 130.529 97.821 130.754 98.2456C130.988 98.6616 131.105 99.16 131.105 99.7406V100.599H125.866V99.7146H130.13L129.948 99.9226V99.7406C129.948 99.1946 129.796 98.7743 129.493 98.4796C129.198 98.1763 128.795 98.0246 128.284 98.0246C127.859 98.0246 127.504 98.12 127.218 98.3106C126.941 98.5013 126.733 98.7656 126.594 99.1036C126.464 99.433 126.395 99.823 126.386 100.274V100.404C126.403 101.149 126.62 101.725 127.036 102.133C127.452 102.531 128.028 102.731 128.765 102.731C129.155 102.731 129.541 102.666 129.922 102.536C130.303 102.406 130.62 102.232 130.871 102.016V103.16C130.62 103.359 130.29 103.519 129.883 103.641C129.484 103.771 129.064 103.836 128.622 103.836ZM133.394 95.5156L134.59 95.1256V103.641H133.394V95.5156ZM131.808 97.1406H136.358V98.1546H131.808V97.1406ZM137.721 94.5406H138.917V101.041H137.721V94.5406ZM138.345 103.836C138.085 103.836 137.868 103.749 137.695 103.576C137.53 103.402 137.448 103.194 137.448 102.952C137.448 102.7 137.53 102.488 137.695 102.315C137.868 102.141 138.085 102.055 138.345 102.055C138.596 102.055 138.804 102.141 138.969 102.315C139.134 102.488 139.216 102.7 139.216 102.952C139.216 103.194 139.134 103.402 138.969 103.576C138.804 103.749 138.596 103.836 138.345 103.836Z" fill="#131313"/>
</svg>
