<svg width="23" height="21" viewBox="0 0 23 21" fill="none" xmlns="http://www.w3.org/2000/svg">
<path d="M22.5344 9.91795C22.8078 10.1524 22.8078 10.543 22.5735 10.8165C22.3782 11.0899 21.9875 11.0898 21.7141 10.8555L20.2688 9.56645V17.2617C20.2688 19.0195 18.8625 20.3867 17.1438 20.3867H5.89383C4.13603 20.3867 2.76883 19.0195 2.76883 17.2617V9.56645L1.28443 10.8555C1.01103 11.0898 0.620326 11.0899 0.425026 10.8165C0.190726 10.543 0.190726 10.1524 0.464126 9.91795L11.0891 0.58205C11.3235 0.34765 11.675 0.34765 11.9094 0.58205L22.5344 9.91795ZM5.89383 19.1367H8.39383V12.8868C8.39383 12.2227 8.94073 11.6368 9.64383 11.6368H13.3938C14.0578 11.6368 14.6438 12.2227 14.6438 12.8868V19.1367H17.1438C18.1594 19.1367 19.0188 18.3165 19.0188 17.2617V8.47265L11.5188 1.87115L4.01883 8.47265V17.2617C4.01883 18.3165 4.83913 19.1367 5.89383 19.1367ZM9.64383 19.1367H13.3938V12.8868H9.64383V19.1367Z" fill="white"/>
</svg>
