<svg width="155" height="35" viewBox="0 0 155 35" fill="none" xmlns="http://www.w3.org/2000/svg">
<rect width="36" height="35" rx="5" fill="#131313"/>
<path d="M11.52 11.8H16.304L18.176 19.432H17.664L19.632 11.8H24.32L25.296 23H22.048L21.136 13.128L21.968 13.144L19.472 23H16.16L13.68 13.016L14.448 13L13.712 23H10.72L11.52 11.8Z" fill="white" fill-opacity="0.8"/>
<path d="M46.185 9.4H53.062L55.753 20.371H55.017L57.846 9.4H64.585L65.988 25.5H61.319L60.008 11.309L61.204 11.332L57.616 25.5H52.855L49.29 11.148L50.394 11.125L49.336 25.5H45.035L46.185 9.4ZM74.4809 25.845C73.0243 25.845 71.7593 25.592 70.6859 25.086C69.6279 24.58 68.8076 23.8593 68.2249 22.924C67.6576 21.9733 67.3739 20.8617 67.3739 19.589C67.3739 18.3777 67.6423 17.312 68.1789 16.392C68.7156 15.4567 69.4669 14.736 70.4329 14.23C71.4143 13.7087 72.5489 13.448 73.8369 13.448C75.1096 13.448 76.1829 13.678 77.0569 14.138C77.9309 14.5827 78.5903 15.2497 79.0349 16.139C79.4796 17.013 79.7019 18.0863 79.7019 19.359V20.854H71.0079L70.9849 18.508H76.6199L75.8839 19.083V18.669C75.8839 18.0403 75.7229 17.565 75.4009 17.243C75.0789 16.921 74.6189 16.76 74.0209 16.76C73.6069 16.76 73.2466 16.8443 72.9399 17.013C72.6486 17.1817 72.4186 17.427 72.2499 17.749C72.0966 18.0557 72.0199 18.4237 72.0199 18.853L71.8359 19.635C71.8359 20.4783 72.1579 21.153 72.8019 21.659C73.4459 22.165 74.4273 22.418 75.7459 22.418C76.3899 22.418 76.9956 22.3413 77.5629 22.188C78.1456 22.0347 78.6823 21.8123 79.1729 21.521V24.58C78.6823 24.948 78.0306 25.2547 77.2179 25.5C76.4206 25.73 75.5083 25.845 74.4809 25.845ZM81.5827 13.793H86.1137V17.542L85.7457 16.553C85.8837 15.6943 86.2977 14.966 86.9877 14.368C87.6777 13.7547 88.5901 13.448 89.7247 13.448C90.5834 13.448 91.3194 13.6397 91.9327 14.023C92.5461 14.391 93.0137 14.9277 93.3357 15.633C93.6731 16.323 93.8417 17.1587 93.8417 18.14V25.5H89.2187V19.198C89.2187 18.5847 89.1037 18.1093 88.8737 17.772C88.6437 17.4347 88.2757 17.266 87.7697 17.266C87.2484 17.266 86.8574 17.45 86.5967 17.818C86.3361 18.1707 86.2057 18.6537 86.2057 19.267V25.5H81.5827V13.793ZM97.6816 10.55L102.305 9.699V25.5H97.6816V10.55ZM95.1056 13.793H105.111V17.496H95.1056V13.793ZM112.429 25.845C111.218 25.845 110.106 25.5997 109.094 25.109C108.082 24.6183 107.277 23.913 106.679 22.993C106.081 22.0577 105.782 20.969 105.782 19.727C105.782 18.439 106.073 17.3273 106.656 16.392C107.239 15.4413 108.036 14.713 109.048 14.207C110.06 13.701 111.187 13.448 112.429 13.448C113.686 13.448 114.821 13.701 115.833 14.207C116.845 14.713 117.642 15.4413 118.225 16.392C118.823 17.3273 119.122 18.439 119.122 19.727C119.122 20.969 118.823 22.0577 118.225 22.993C117.627 23.913 116.814 24.6183 115.787 25.109C114.775 25.5997 113.656 25.845 112.429 25.845ZM112.429 22.027C112.828 22.027 113.173 21.935 113.464 21.751C113.755 21.5517 113.978 21.2757 114.131 20.923C114.3 20.5703 114.384 20.1563 114.384 19.681C114.384 19.1903 114.307 18.7687 114.154 18.416C114.001 18.048 113.771 17.7643 113.464 17.565C113.173 17.3657 112.828 17.266 112.429 17.266C112.03 17.266 111.685 17.3657 111.394 17.565C111.103 17.7643 110.88 18.048 110.727 18.416C110.574 18.7687 110.497 19.1903 110.497 19.681C110.497 20.1563 110.574 20.5703 110.727 20.923C110.896 21.2757 111.126 21.5517 111.417 21.751C111.708 21.935 112.046 22.027 112.429 22.027ZM120.934 13.793H125.557V18.14V18.439V25.5H120.934V13.793ZM125.258 18.393C125.35 16.645 125.68 15.4107 126.247 14.69C126.815 13.954 127.581 13.586 128.547 13.586C128.854 13.586 129.13 13.6243 129.375 13.701C129.621 13.7777 129.835 13.8773 130.019 14V18.209C129.529 17.9177 128.908 17.772 128.156 17.772C127.298 17.772 126.646 18.025 126.201 18.531C125.772 19.037 125.557 19.7807 125.557 20.762L125.258 18.393ZM132.801 14.138V13.724C132.801 12.1293 133.23 10.8873 134.089 9.998C134.948 9.10867 136.236 8.664 137.953 8.664C138.52 8.664 139.034 8.71767 139.494 8.825C139.969 8.917 140.345 9.03967 140.621 9.193V12.482C140.437 12.39 140.222 12.321 139.977 12.275C139.747 12.229 139.494 12.206 139.218 12.206C138.574 12.206 138.114 12.3363 137.838 12.597C137.562 12.8577 137.424 13.264 137.424 13.816V14.23V25.5H132.801V14.138ZM130.731 13.793H140.598V17.496H130.731V13.793ZM146.118 22.464L146.003 25.592L140.943 13.793H145.888L148.05 20.141H147.613L149.936 13.793H154.858L147.682 29.87H142.645L146.118 22.464Z" fill="#131313"/>
</svg>
