<svg width="18" height="21" viewBox="0 0 18 21" fill="none" xmlns="http://www.w3.org/2000/svg">
<path d="M5.62328 5.13953C5.62328 4.31156 5.95219 3.5175 6.53766 2.93203C7.12312 2.34657 7.91718 2.01766 8.74516 2.01766C9.57313 2.01766 10.3672 2.34657 10.9527 2.93203C11.5381 3.5175 11.867 4.31156 11.867 5.13953C11.867 5.9675 11.5381 6.76157 10.9527 7.34703C10.3672 7.9325 9.57313 8.26141 8.74516 8.26141C7.91718 8.26141 7.12312 7.9325 6.53766 7.34703C5.95219 6.76157 5.62328 5.9675 5.62328 5.13953ZM13.7402 5.13953C13.7402 3.81477 13.2139 2.54428 12.2772 1.60753C11.3404 0.670789 10.0699 0.144531 8.74516 0.144531C7.4204 0.144531 6.1499 0.670789 5.21316 1.60753C4.27641 2.54428 3.75016 3.81477 3.75016 5.13953C3.75016 6.46429 4.27641 7.73479 5.21316 8.67153C6.1499 9.60827 7.4204 10.1345 8.74516 10.1345C10.0699 10.1345 11.3404 9.60827 12.2772 8.67153C13.2139 7.73479 13.7402 6.46429 13.7402 5.13953ZM10.5285 13.8808C13.0924 13.8808 15.2152 15.7812 15.5626 18.2514H1.92776C2.27507 15.7812 4.39795 13.8808 6.96179 13.8808H10.5285ZM6.96179 12.0077C3.11798 12.0077 0.00390625 15.1217 0.00390625 18.9655C0.00390625 19.6055 0.522918 20.1245 1.1629 20.1245H16.3274C16.9674 20.1245 17.4864 19.6055 17.4864 18.9655C17.4864 15.1217 14.3723 12.0077 10.5285 12.0077H8.74516H6.96179Z" fill="white"/>
</svg>
