<svg width="26" height="21" viewBox="0 0 26 21" fill="none" xmlns="http://www.w3.org/2000/svg">
<path d="M12.5227 12.8078C14.7861 12.8078 16.5811 11.0127 16.5811 8.74937C16.5811 6.525 14.747 4.69094 12.5227 4.69094C10.2984 4.69094 8.50328 6.525 8.50328 8.74937C8.46422 11.0127 10.2984 12.8078 12.5227 12.8078ZM12.5227 5.93969C14.0836 5.93969 15.3323 7.2275 15.3323 8.74937C15.3323 10.3103 14.0836 11.5591 12.5227 11.5591C11.0008 11.5591 9.71297 10.3103 9.71297 8.74937C9.71297 7.2275 11.0008 5.93969 12.5227 5.93969ZM14.4739 14.0566H10.6106C7.52766 14.0566 5.06922 16.398 5.06922 19.2857C5.06922 19.871 5.53755 20.3003 6.16192 20.3003H18.9226C19.5469 20.3003 20.0542 19.871 20.0542 19.2857C20.0542 16.398 17.5567 14.0566 14.4739 14.0566ZM6.31797 19.0516C6.43505 16.9833 8.30818 15.3053 10.5715 15.3053H14.4739C16.7763 15.3053 18.6494 16.9833 18.7664 19.0516H6.31797ZM20.0542 6.56406C21.7713 6.56406 23.1761 5.19823 23.1761 3.44219C23.1761 1.72511 21.7713 0.320312 20.0542 0.320312C18.2982 0.320312 16.9323 1.72511 16.9323 3.44219C16.9323 5.19823 18.2982 6.56406 20.0542 6.56406ZM20.0542 1.56906C21.0688 1.56906 21.9273 2.4276 21.9273 3.44219C21.9273 4.49583 21.0688 5.31531 20.0542 5.31531C19.0006 5.31531 18.1811 4.49583 18.1811 3.44219C18.1811 2.4276 19.0006 1.56906 20.0542 1.56906ZM5.06922 6.56406C6.7863 6.56406 8.19109 5.19823 8.19109 3.44219C8.19109 1.72511 6.7863 0.320312 5.06922 0.320312C3.31318 0.320312 1.94734 1.72511 1.94734 3.44219C1.94734 5.19823 3.31318 6.56406 5.06922 6.56406ZM5.06922 1.56906C6.0838 1.56906 6.94234 2.4276 6.94234 3.44219C6.94234 4.49583 6.0838 5.31531 5.06922 5.31531C4.01557 5.31531 3.19609 4.49583 3.19609 3.44219C3.19609 2.4276 4.01557 1.56906 5.06922 1.56906ZM21.9664 7.81281H19.4298C18.9615 7.81281 18.5323 7.92989 18.142 8.125C17.8298 8.28114 17.7128 8.63229 17.8298 8.94448C17.986 9.25667 18.3762 9.41281 18.6884 9.25667C18.9226 9.13958 19.1567 9.06156 19.4298 9.06156H21.9664C22.9419 9.06156 23.8005 9.95906 23.8005 11.0518V11.5591C23.8005 11.9103 24.0736 12.1834 24.4248 12.1834C24.737 12.1834 25.0492 11.9103 25.0492 11.5591V11.0518C25.0492 9.29573 23.6444 7.81281 21.9664 7.81281ZM6.39599 9.25667C6.70818 9.41281 7.09839 9.25667 7.25453 8.94448C7.37161 8.63229 7.25453 8.28114 6.94234 8.125C6.55213 7.92989 6.12286 7.81281 5.69359 7.81281H3.11807C1.44005 7.81281 0.0742188 9.29573 0.0742188 11.0518V11.5591C0.0742188 11.9103 0.347345 12.1834 0.698594 12.1834C1.01078 12.1834 1.32297 11.9103 1.32297 11.5591V11.0518C1.32297 9.95906 2.14245 9.06156 3.11807 9.06156H5.69359C5.92776 9.06156 6.16193 9.13958 6.39599 9.25667Z" fill="white"/>
</svg>
