<svg width="55" height="56" viewBox="0 0 55 56" fill="none" xmlns="http://www.w3.org/2000/svg">
<g clip-path="url(#clip0_2342_62629)">
<path d="M39.9971 44.1484V47.0354C39.9971 47.4765 40.3599 47.8387 40.8063 47.8387H44.2627C44.952 47.8387 45.5657 48.2755 45.7913 48.9269L47.2621 53.1732C47.5545 54.0174 47.1072 54.9388 46.263 55.2312C45.4188 55.5236 44.4974 55.0763 44.205 54.2321L43.1111 51.074H40.8063C38.5742 51.074 36.7618 49.2644 36.7618 47.0354V45.7564C35.2901 45.6254 34.4039 44.1906 34.9909 42.7783L36.7618 38.5177V38.3297C36.7618 33.4177 40.7442 29.438 45.6603 29.438H46.101C51.0147 29.438 54.9995 33.4208 54.9995 38.3315V38.4867C54.9995 40.3531 54.6909 41.7557 54.0232 43.6298C53.9796 43.752 53.7584 44.3631 53.7007 44.5265C53.5915 44.8359 53.512 45.0782 53.4472 45.3035C53.3025 45.8063 53.2344 46.2193 53.2344 46.6255C53.2344 47.46 53.4572 48.3444 53.8342 49.206C53.9694 49.5151 54.1141 49.7971 54.2571 50.0436C54.3379 50.1829 54.3951 50.2724 54.4174 50.3045C54.9261 51.0389 54.7432 52.0466 54.0088 52.5554C53.2744 53.0641 52.2666 52.8812 51.7579 52.1468C51.5186 51.8015 51.1919 51.2381 50.8702 50.5028C50.3279 49.2634 49.9991 47.9583 49.9991 46.6255C49.9991 45.8879 50.1153 45.1829 50.338 44.4088C50.4232 44.1131 50.5212 43.8143 50.6498 43.4497C50.7129 43.2712 50.9363 42.6539 50.9755 42.5439C51.5298 40.9883 51.7642 39.9229 51.7642 38.4867V38.3315C51.7642 35.2079 49.2283 32.6733 46.101 32.6733H45.6603C42.5305 32.6733 39.9971 35.205 39.9971 38.3297V38.8405C39.9971 39.0536 39.955 39.2646 39.8732 39.4614L38.5917 42.5446C39.3848 42.6485 39.9971 43.327 39.9971 44.1484ZM15.0308 15.0308C15.0308 14.2093 15.6431 13.5309 16.4362 13.4269L15.1547 10.3438C15.0729 10.147 15.0308 9.93599 15.0308 9.72289V9.2121C15.0308 6.08737 12.4974 3.55561 9.36756 3.55561H8.92681C5.79956 3.55561 3.26361 6.09028 3.26361 9.21382V9.36903C3.26361 10.8053 3.49802 11.8706 4.0523 13.4263C4.09147 13.5362 4.31501 14.1535 4.37802 14.3321C4.50668 14.6966 4.60471 14.9954 4.68982 15.2911C4.9126 16.0653 5.02872 16.7702 5.02872 17.5078C5.02872 18.8407 4.69993 20.1458 4.15765 21.3852C3.83595 22.1205 3.50924 22.6838 3.26998 23.0292C2.76123 23.7636 1.75346 23.9465 1.01906 23.4377C0.284663 22.929 0.10175 21.9212 0.610502 21.1868C0.632717 21.1548 0.689987 21.0652 0.770746 20.926C0.913741 20.6794 1.05841 20.3974 1.19362 20.0884C1.57059 19.2268 1.79343 18.3424 1.79343 17.5078C1.79343 17.1017 1.72538 16.6886 1.5807 16.1859C1.51585 15.9605 1.43637 15.7183 1.32716 15.4088C1.26951 15.2455 1.04826 14.6344 1.00469 14.5121C0.336973 12.6381 0.0283203 11.2355 0.0283203 9.36903V9.21382C0.0283203 4.3031 4.01312 0.320312 8.92681 0.320312H9.36756C14.2837 0.320312 18.266 4.30009 18.266 9.2121V9.40008L20.037 13.6607C20.624 15.073 19.7377 16.5078 18.266 16.6387V17.9177C18.266 20.1468 16.4536 21.9563 14.2215 21.9563H11.9168L10.8229 25.1145C10.5305 25.9587 9.60908 26.406 8.76489 26.1136C7.92069 25.8212 7.47335 24.8998 7.76576 24.0556L9.23659 19.8092C9.4622 19.1579 10.0758 18.721 10.7651 18.721H14.2215C14.668 18.721 15.0308 18.3588 15.0308 17.9177V15.0308ZM30.7348 43.9968C31.6282 43.9968 32.3525 44.721 32.3525 45.6144C32.3525 46.5078 31.6282 47.2321 30.7348 47.2321H12.9407C9.36711 47.2321 6.47013 44.3351 6.47013 40.7615V32.6733C6.47013 31.7799 7.19437 31.0556 8.08778 31.0556C8.98118 31.0556 9.70542 31.7799 9.70542 32.6733V40.7615C9.70542 42.5483 11.1539 43.9968 12.9407 43.9968H30.7348ZM24.2642 11.6438C23.3708 11.6438 22.6466 10.9196 22.6466 10.0262C22.6466 9.13279 23.3708 8.40855 24.2642 8.40855H42.0584C45.632 8.40855 48.529 11.3055 48.529 14.8791V22.9674C48.529 23.8608 47.8047 24.585 46.9113 24.585C46.0179 24.585 45.2937 23.8608 45.2937 22.9674V14.8791C45.2937 13.0923 43.8452 11.6438 42.0584 11.6438H24.2642Z" fill="#1F2105"/>
</g>
<defs>
<clipPath id="clip0_2342_62629">
<rect width="55" height="55" fill="white" transform="translate(0 0.320312)"/>
</clipPath>
</defs>
</svg>
