<svg width="190" height="1080" viewBox="0 0 190 1080" fill="none" xmlns="http://www.w3.org/2000/svg">
<g clip-path="url(#clip0_1026_2292)">
<rect width="190" height="1080" fill="#95A302"/>
<g style="mix-blend-mode:color-burn" opacity="0.04" clip-path="url(#clip1_1026_2292)">
<rect width="191" height="1081" transform="translate(-0.5)" fill="#5C6501"/>
<path d="M1460.55 1461.05H-0.5V-0.00268555H1460.55V1461.05Z" fill="white"/>
<path d="M906.446 -0.00262451H876.765C895.346 22.5268 909.781 46.9592 913.532 77.1042C918.207 114.642 910.077 149.276 882.799 174.834C834.369 220.207 803.741 281.644 749.533 321.26C708.956 350.912 665.289 343.209 624.208 324.142C575.387 301.481 529.119 305.656 482.237 327.283C479.315 328.631 475.918 328.949 472.744 329.749C473.595 326.465 473.993 322.977 475.367 319.927C491.683 283.624 555.71 269.389 604.63 290.381C653.637 311.409 702.684 338.807 754.307 296.211C789.522 267.154 810.064 226.511 837.422 191.238C858.217 164.424 887.083 141.825 888.606 104.634C890.634 55.2177 864.13 23.0966 824.781 -0.00262451H627.225C645.89 6.44427 664.481 13.1286 683.442 18.5272C719.355 28.7509 755.048 12.8072 790.917 16.0251C825.957 19.1737 851.865 37.8312 868.7 68.1626C879.037 86.7947 878.711 106.121 866.165 124.519C861.241 131.74 854.823 136.193 846.455 134.936C836.451 133.435 832.356 125.081 830.164 116.187C815.339 55.9263 798.029 43.2298 738.243 59.8054C699.2 70.6281 670.256 50.2465 638.793 37.4368C570.412 9.58917 502.853 53.1979 502.542 126.634C502.466 144.349 501.315 162.108 499.657 179.75C498.503 192.045 496.106 206.17 479.235 203.792C463.81 201.615 458.123 187.355 458.598 174.479C461.217 103.283 474.874 20.5543 558.427 -0.00262451H496.358C453.225 54.5603 434.768 117.17 441.536 186.438C444.064 212.328 458.32 236.552 488.893 232.063C521.993 227.198 517.62 195.574 521.127 171.802C527.468 128.752 521.335 80.0994 570.025 55.9666C602.179 40.0302 632.872 50.977 658.973 70.9824C681.484 88.2338 703.137 94.6625 732.307 91.5979C796.776 84.8223 819.882 116.863 804.253 184.692C789.982 246.63 739.707 299.907 695.35 298.954C662.235 298.241 637.927 274.945 609.024 263.384C552.675 240.84 507.28 265.244 464.548 299.18C399.633 350.733 330.117 392.249 245.084 399.664C237.189 400.351 227.807 399.182 226.006 390.445C223.992 380.67 233.759 377.945 240.963 375.399C280.614 361.381 322.16 352.607 359.2 331.415C414.668 299.677 420.866 251.291 411.515 193.404C400.484 125.129 415.961 60.1926 450.259 -0.00262451H417.626C391.342 65.6094 395.221 135.159 391.937 203.843C390.031 243.832 381.392 282.239 352.326 312.074C292.216 373.77 201.858 371.177 135.088 307.709C126.007 299.078 114.062 281.648 100.735 292.803C87.2573 304.089 100.711 318.444 108.914 329.778C114.514 337.522 120.049 345.415 126.527 352.395C160.92 389.44 191.708 432.852 251.594 427.051C287.942 423.53 316.318 401.023 347.67 385.802C415.533 352.859 484.002 395.357 484.002 471.003C484.002 564.554 388.171 630.521 291.566 610.314C224.72 596.328 165.509 562.034 99.155 548.136C61.8032 540.312 16.832 565.844 7.52642 603.181C-0.268237 634.451 21.4977 660.921 61.5293 671.73C118.313 687.056 171.247 708.592 208.642 758.373C247.959 810.715 262.005 812.505 317.578 773.82C363.743 741.685 411.194 727.067 466.86 747.379C517.767 765.953 538.908 752.306 539.394 698.211C540.018 628.778 572.012 584.183 635.388 559.587C689.904 538.431 718.449 486.969 704.763 431.277C697.465 401.57 673.642 389.937 645.835 396.278C621.019 401.932 630.118 424.144 633.602 440.409C643.052 484.565 639.746 524.017 599.205 552.672C573.553 570.804 549.292 590.356 537.122 620.94C527.851 644.244 517.975 667.445 500.384 685.847C461.567 726.457 409.108 719.626 360.384 724.535C256.545 734.993 170.715 685.84 84.6274 638.688C67.8593 629.505 47.821 616.356 61.248 594.206C73.98 573.2 96.1733 580.246 113.616 590.718C171.757 625.619 228.23 662.368 297.029 675.809C355.802 687.293 415.318 672.792 442.595 635.561C495.084 563.93 508.704 482.874 505.863 396.577C504.124 343.644 534.554 319.748 584.767 336.587C665.186 363.554 738.524 361.688 799.307 294.432C830.778 259.615 855.375 218.49 893.852 190.124C927.474 165.333 943.14 133.683 936.595 91.2289C931.62 58.9507 918.24 29.8028 906.446 -0.00262451Z" fill="#666F01"/>
<path d="M662.294 657.466C638.384 700.746 629.917 747.909 622.696 796.171C614.138 853.378 571.665 880.053 515.309 856.903C440.624 826.221 378.496 834.695 322.974 893.422C316.692 900.066 303.617 909.767 298.182 900.143C288.793 883.508 303.364 869.409 313.757 857.4C366.746 796.174 429.136 786.089 503.306 817.882C531.793 830.093 571.534 847.103 588.942 800.13C597.836 776.136 596.93 748.5 600.455 722.508C601.956 691.413 600.006 658.803 625.07 634.801C635.688 624.632 649.999 614.778 663.679 623.617C677.106 632.292 668.186 646.797 662.294 657.466ZM899.846 486.633C899.105 482.87 892.11 478.582 887.351 477.647C847.391 469.794 805.806 471.182 767.274 454.716C753.562 448.854 746.644 458.898 745.545 471.2C740.208 530.954 713.734 573.638 654.419 594.118C619.778 606.077 585.348 623.489 577.203 663.515C571.508 691.508 573.678 721.19 573.152 750.133C572.476 787.094 553.216 804.689 517.599 797.818C486.092 791.736 455.238 779.387 423.613 777.36C355.622 772.991 314.217 819.083 276.251 866.29C258.265 888.651 261.364 913.825 284.146 933.349C299.193 946.246 315.297 941.549 329.593 931.34C346.66 919.154 361.089 901.549 379.764 893.626C476.825 852.432 571.07 872.153 657.659 921.335C734.773 965.13 751.579 1024.74 716.459 1083.55C683.951 1137.99 628.076 1153.67 573.342 1172.05C500.172 1196.61 435.996 1230.89 416.199 1315.32C405.518 1360.86 382.584 1399.18 331.754 1407.1C285.806 1414.27 256.708 1383.79 227.926 1353.75C203.594 1328.36 181.023 1299.74 146.601 1287.11C86.5187 1265.08 41.9128 1295.14 -0.5 1331.16V1383.6C12.0759 1365.23 23.6547 1346.05 42.5889 1332.98C98.7111 1294.25 146.654 1303.43 189.015 1358.42C217.738 1395.71 248.591 1431.35 285.452 1461.05H423.34C402.91 1375.09 441.376 1308.72 499.975 1250.84C537.393 1213.88 589.278 1200.28 634.611 1176.07C694.73 1143.96 745.435 1102.72 758.859 1030.88C768.702 978.206 731.343 952.565 695.884 925.985C670.217 906.747 637.434 893.352 631.78 855.946C630.882 849.999 634.114 843.425 635.436 837.142C638.399 838.563 642.135 839.286 644.174 841.544C648.831 846.701 652.425 852.805 656.859 858.181C684.849 892.121 720.667 917.2 754.472 944.577C800.692 982.002 799.271 1027.25 762.354 1092.28C714.041 1177.38 633.654 1219.73 553.446 1263.64C494.478 1295.93 439.594 1387 472.011 1461.05H517.771C476.529 1375.18 522.406 1284.77 607.147 1255.98C644.44 1243.32 685.488 1236.98 711.028 1201.42C740.767 1160.02 756.81 1110.09 792.543 1072.27C809.462 1054.37 827.543 1035.23 824.613 1007.74C820.741 971.42 788.92 956.725 765.291 936.187C721.58 898.196 668.409 866.739 650.073 808.432C625.359 729.846 667.2 669.837 716.667 614.979C763.421 563.13 829.438 540.841 887.31 506.061C894.378 501.813 901.629 495.677 899.846 486.633Z" fill="#666F01"/>
<path d="M519.663 1113.4C459.767 1144.88 413.225 1195.24 355.307 1229.35C334.638 1241.52 311.83 1247.52 284.794 1247.66C245.829 1246.17 208.296 1231.25 173.939 1208.18C166.596 1203.25 156.414 1195.84 162.362 1184.57C170.22 1169.68 184.796 1171.34 197.221 1176.44C289.69 1214.39 362.327 1170.6 434.272 1120.79C458.514 1104.01 483.655 1087.1 515.886 1089.76C522.713 1090.33 528.915 1093.45 528.871 1098.96C528.831 1103.91 524.221 1111.01 519.663 1113.4ZM684.217 1027.23C674.41 1017.78 661.655 1043.2 651.442 1054.13C629.464 1077.64 604.013 1091.25 572.29 1078.1C542.543 1065.78 513.658 1058.53 482.14 1070.7C417.262 1095.76 361.688 1140.78 290.489 1153.39C229.608 1164.17 159.737 1130.68 140.793 1071.85C125.943 1025.73 138.038 976.514 126.481 929.772C108.001 855.043 73.2695 792.977 -0.5 760.823V795.527C55.2584 822.885 80.5956 873.62 94.6154 930.017C113.579 1006.3 124.504 1084.6 99.7499 1161.34C84.5634 1208.43 44.6245 1232.88 -0.5 1248.27V1278.2C103.126 1200.85 184.805 1226.26 261.565 1314.74C302.094 1361.45 344.331 1361.63 367.082 1304.3C401.117 1218.53 453.857 1156.21 544.987 1130.11C588.617 1117.61 637.672 1116.8 670.725 1078.75C683.677 1063.84 699.788 1042.23 684.217 1027.23Z" fill="#666F01"/>
<path d="M618.419 941.735C548.53 911.911 474.67 922.683 402.045 928.326C387.259 929.473 371.724 943.159 374.628 961.002C376.549 972.815 392.522 970.992 401.899 968.72C454.515 955.965 507.459 948.032 561.434 956.575C577.433 959.107 602.062 957.222 602.008 980.007C601.949 1003.73 578.602 1001.93 561.854 1000.44C512.332 996.064 463.522 990.658 414.511 1007.64C311.737 1043.25 251.303 1016.95 225.769 911.213C195.607 786.316 119.202 721.273 -0.5 698.112V718.037C0.315846 718.165 1.12156 718.326 1.8996 718.574C102.795 750.721 183.346 869.91 188.466 992.349C190.103 1031.5 197.47 1070.64 235.175 1092.21C278.312 1116.9 318.733 1098.25 355.139 1075.11C422.583 1032.25 488.049 991.63 573.912 1026.7C597.182 1036.21 627.2 1025.2 639.772 998.018C650.595 974.608 640.031 950.958 618.419 941.735Z" fill="#666F01"/>
<path d="M433.53 423.499C415.139 396.704 376.582 393.409 343.013 417.228C315.633 436.652 292.764 463.543 255.863 465.943C197.978 469.705 160.99 433.986 124.362 397.062C74.5673 346.864 60.0214 343.876 -0.5 374.817V423.7C56.901 395.217 99.5622 431.754 145.308 458.451C226.53 505.848 278.882 500.204 358.156 438.99C369.226 430.439 384.278 418.484 395.656 431.455C409.427 447.157 397.665 465.011 385.469 477.01C330.751 530.839 264.262 532.22 194.171 518.833C147.134 509.847 109.558 478.168 63.6949 466.947C40.1548 461.187 19.5455 469.201 -0.5 479.713V524.619C21.888 506.381 46.8647 491.529 76.2256 500.537C123.133 514.928 167.763 537.059 214.949 550.176C280.361 568.359 347.13 582.308 409.631 537.885C444.74 512.93 456.856 457.487 433.53 423.499Z" fill="#666F01"/>
<path d="M297.722 -0.00244141H236.185C224.388 22.2019 211.277 43.8656 201.804 67.0232C185.694 106.413 197.911 137.957 233.297 161.407C246.819 170.367 263.413 178.198 263.745 197.74C263.828 202.598 258.245 210.652 253.736 211.959C232.898 218.015 215.936 207.583 202.075 193.985C146.071 139.049 136.945 71.0374 175.235 2.66026C175.714 1.80919 176.113 0.910706 176.482 -0.00244141H148.75C120.935 59.6522 134.41 156.202 179.083 204.146C201.131 227.808 227.199 246.86 261.464 232.458C290.833 220.116 292.427 191.366 291.212 164.662C288.699 109.485 284.982 54.4216 297.722 -0.00244141Z" fill="#666F01"/>
<path d="M374.828 -0.00418091H346.133C344.603 4.43011 343.027 8.84973 341.883 13.379C326.096 75.9265 338.964 140.414 329.034 203.418C322.249 246.464 289.433 287.26 250.27 294.12C214.759 300.34 184.551 285.5 165.253 256.158C114.098 178.379 89.5484 93.4957 102.815 -0.00418091H72.5417C71.5091 5.26291 70.2234 10.5482 70.6048 15.7094C77.4973 109.041 105.599 197.88 154.423 275.32C193.961 338.035 265.756 356.897 323.478 286.672C361.369 240.576 366.051 185.911 366.515 129.449C366.869 86.1978 360.974 42.3224 374.828 -0.00418091Z" fill="#666F01"/>
<path d="M55.9586 945.811C48.8371 907.937 34.1413 872.619 -0.5 850.656V902.005C28.722 940.58 32.2311 986.351 32.9348 1032.66C33.4207 1064.65 24.0053 1092.83 -0.5 1114.11V1192.13C21.2475 1183.91 35.7924 1167.22 45.7641 1147.14C78.2214 1081.78 68.661 1013.37 55.9586 945.811Z" fill="#666F01"/>
<path d="M78.545 170.65C64.9134 113.728 31.8036 61.3163 36.9734 -0.0039978H15.1793C9.35953 42.4359 28.3557 79.7802 41.3225 118.246C63.1638 183.036 48.9942 239.309 -0.5 281.591V325.719C53.0292 314.166 93.5014 233.107 78.545 170.65Z" fill="#666F01"/>
<path d="M13.8485 136.278C11.4685 118.124 9.48394 99.2694 -0.5 83.1212V226.352C-0.324788 226.176 -0.165414 225.994 -0.0424249 225.789C16.5822 197.854 17.8895 167.095 13.8485 136.278Z" fill="#666F01"/>
</g>
</g>
<defs>
<clipPath id="clip0_1026_2292">
<rect width="190" height="1080" fill="white"/>
</clipPath>
<clipPath id="clip1_1026_2292">
<rect width="191" height="1081" fill="white" transform="translate(-0.5)"/>
</clipPath>
</defs>
</svg>
